<svg width="66" height="36" viewBox="0 0 66 36" fill="none" xmlns="http://www.w3.org/2000/svg">
<path d="M11.6875 35H4.11719L4.16406 28.6719H11.6875C13.25 28.6719 14.5703 28.2969 15.6484 27.5469C16.7422 26.7969 17.5703 25.6797 18.1328 24.1953C18.7109 22.6953 19 20.8516 19 18.6641V17.1875C19 15.5469 18.8359 14.1094 18.5078 12.875C18.1953 11.625 17.7266 10.5859 17.1016 9.75781C16.4766 8.91406 15.6953 8.28125 14.7578 7.85938C13.8359 7.4375 12.7734 7.22656 11.5703 7.22656H3.97656V0.875H11.5703C13.8828 0.875 16 1.27344 17.9219 2.07031C19.8594 2.85156 21.5312 3.97656 22.9375 5.44531C24.3594 6.89844 25.4531 8.625 26.2188 10.625C27 12.6094 27.3906 14.8125 27.3906 17.2344V18.6641C27.3906 21.0703 27 23.2734 26.2188 25.2734C25.4531 27.2734 24.3672 29 22.9609 30.4531C21.5547 31.9062 19.8906 33.0312 17.9688 33.8281C16.0625 34.6094 13.9688 35 11.6875 35ZM8.82812 0.875V35H0.601562V0.875H8.82812Z" fill="#85171A"/>
<path d="M46.8578 25.9297C46.8578 25.3984 46.7797 24.9219 46.6234 24.5C46.4672 24.0625 46.1781 23.6562 45.7563 23.2812C45.3344 22.9062 44.725 22.5312 43.9281 22.1562C43.1469 21.7656 42.1156 21.3594 40.8344 20.9375C39.3344 20.4375 37.8891 19.875 36.4984 19.25C35.1078 18.6094 33.8656 17.8672 32.7719 17.0234C31.6781 16.1641 30.8109 15.1641 30.1703 14.0234C29.5297 12.8672 29.2094 11.5234 29.2094 9.99219C29.2094 8.52344 29.5375 7.20312 30.1938 6.03125C30.85 4.84375 31.7641 3.83594 32.9359 3.00781C34.1234 2.16406 35.5141 1.52344 37.1078 1.08594C38.7016 0.632813 40.4438 0.40625 42.3344 0.40625C44.8344 0.40625 47.0375 0.84375 48.9438 1.71875C50.8656 2.57813 52.3656 3.80469 53.4438 5.39844C54.5375 6.97656 55.0844 8.84375 55.0844 11H46.9047C46.9047 10.1406 46.725 9.38281 46.3656 8.72656C46.0219 8.07031 45.4984 7.55469 44.7953 7.17969C44.0922 6.80469 43.2094 6.61719 42.1469 6.61719C41.1156 6.61719 40.2484 6.77344 39.5453 7.08594C38.8422 7.39844 38.3109 7.82031 37.9516 8.35156C37.5922 8.86719 37.4125 9.4375 37.4125 10.0625C37.4125 10.5781 37.5531 11.0469 37.8344 11.4688C38.1313 11.875 38.5453 12.2578 39.0766 12.6172C39.6234 12.9766 40.2797 13.3203 41.0453 13.6484C41.8266 13.9766 42.7016 14.2969 43.6703 14.6094C45.4828 15.1875 47.0922 15.8359 48.4984 16.5547C49.9203 17.2578 51.1156 18.0625 52.0844 18.9688C53.0688 19.8594 53.8109 20.875 54.3109 22.0156C54.8266 23.1562 55.0844 24.4453 55.0844 25.8828C55.0844 27.4141 54.7875 28.7734 54.1938 29.9609C53.6 31.1484 52.7484 32.1562 51.6391 32.9844C50.5297 33.7969 49.2016 34.4141 47.6547 34.8359C46.1078 35.2578 44.3813 35.4688 42.475 35.4688C40.725 35.4688 38.9984 35.25 37.2953 34.8125C35.6078 34.3594 34.0766 33.6719 32.7016 32.75C31.3266 31.8125 30.225 30.6172 29.3969 29.1641C28.5844 27.6953 28.1781 25.9531 28.1781 23.9375H36.4281C36.4281 24.9375 36.5609 25.7812 36.8266 26.4688C37.0922 27.1562 37.4828 27.7109 37.9984 28.1328C38.5141 28.5391 39.1469 28.8359 39.8969 29.0234C40.6469 29.1953 41.5063 29.2812 42.475 29.2812C43.5219 29.2812 44.3656 29.1328 45.0063 28.8359C45.6469 28.5234 46.1156 28.1172 46.4125 27.6172C46.7094 27.1016 46.8578 26.5391 46.8578 25.9297Z" fill="#DC2025"/>
<path d="M65.6688 0.875V35H57.4656V0.875H65.6688Z" fill="#FEBA08"/>
</svg>
