<svg width="563" height="369" viewBox="0 0 563 369" fill="none" xmlns="http://www.w3.org/2000/svg">
<path d="M48.9192 330.258C61.2662 322.45 64.4025 307.493 64.2738 293.941C64.2738 291.685 64.5706 289.315 63.4923 287.308C62.4139 285.301 59.8317 283.896 57.6848 284.795C55.9139 285.54 55.1026 287.471 54.0737 289.057C52.7019 291.181 50.7367 292.887 48.4048 293.979C46.8812 294.686 45.0113 295.097 43.5471 294.285C41.5684 293.167 41.3606 290.462 41.4299 288.235C41.5684 284.056 41.7003 279.879 41.8256 275.706C42.0284 273.463 41.8479 271.203 41.2914 269.016C40.9963 267.933 40.4373 266.935 39.6611 266.103C38.8849 265.272 37.9139 264.632 36.8294 264.237C34.6034 263.588 31.8134 264.753 31.2792 266.932C31.1684 267.859 31.1222 268.791 31.1407 269.723C31.1427 270.191 31.0008 270.649 30.733 271.038C30.4653 271.428 30.0838 271.732 29.6369 271.912C29.1506 271.955 28.661 271.878 28.2143 271.687C27.7676 271.496 27.3787 271.199 27.0844 270.822C24.8319 268.389 23.0071 265.616 21.6826 262.613C20.36 259.614 18.6729 256.778 16.6567 254.164C14.5197 251.641 11.522 249.615 8.15822 249.386C4.79445 249.156 1.16355 251.03 0.243464 254.164C-0.676627 257.299 1.16355 260.558 3.2115 263.157C6.24237 267.033 9.83798 270.465 13.8865 273.345C14.6748 273.784 15.2983 274.453 15.6673 275.257C16.1323 276.767 14.6087 278.21 13.0555 278.669C11.2845 279.185 9.38501 278.965 7.55472 279.127C5.72443 279.29 3.70616 280.016 2.97405 281.65C1.9847 283.925 3.90403 286.372 5.83325 287.987C9.72462 291.237 14.1611 293.822 18.952 295.632C20.7186 296.143 22.3746 296.959 23.8393 298.041C25.2046 299.226 25.9961 301.261 25.1156 302.819C24.2351 304.377 22.0585 304.836 20.248 304.473C18.5022 303.97 16.8043 303.325 15.1727 302.542C11.9672 301.309 7.79216 301.424 5.65517 304.043C4.99529 304.937 4.56199 305.968 4.39016 307.054C4.21832 308.14 4.31274 309.249 4.66583 310.293C5.40478 312.369 6.56896 314.28 8.08896 315.912C13.0779 321.911 19.6213 326.527 27.0547 329.292C34.4847 331.949 41.42 332.781 48.9291 330.353" fill="#EE4248"/>
<path d="M3.70616 251.211L3.9337 251.431L4.61635 252.033C5.21985 252.568 6.10037 253.352 7.21833 254.394C10.3732 257.329 13.2966 260.489 15.9641 263.846C17.6559 265.958 19.4169 268.357 21.2571 270.956C23.0973 273.556 25.0265 276.365 26.9558 279.376C28.9904 282.511 30.8434 285.752 32.506 289.086C33.3766 290.816 34.1384 292.631 34.9101 294.476C35.6818 296.321 36.4732 298.194 37.2647 300.096C40.2979 307.197 42.9106 314.459 45.0904 321.847C46.8446 327.889 48.0007 334.078 48.5432 340.331C48.898 344.546 48.8649 348.784 48.4443 352.994C48.286 354.475 48.1376 355.632 48.009 356.415C47.9496 356.788 47.9101 357.084 47.8705 357.304C47.8638 357.406 47.8638 357.508 47.8705 357.61C47.9038 357.513 47.9303 357.414 47.9496 357.314C47.9496 357.094 48.0486 356.798 48.1178 356.425C48.2761 355.651 48.4542 354.514 48.6422 353.013C49.1272 348.795 49.2066 344.543 48.8796 340.312C48.3826 334.034 47.2527 327.818 45.506 321.752C43.3415 314.34 40.7351 307.055 37.7 299.933C36.8954 298.022 36.1105 296.152 35.3454 294.323C34.5638 292.479 33.7921 290.653 32.9215 288.904C31.2425 285.561 29.3731 282.309 27.3218 279.166C25.3431 276.155 23.4238 273.364 21.5836 270.765C19.7434 268.165 17.9527 265.776 16.2313 263.664C13.5241 260.314 10.5467 257.176 7.32715 254.279C6.18941 253.256 5.27921 252.482 4.65593 251.976L3.95349 251.393C3.7952 251.269 3.71605 251.202 3.70616 251.211Z" fill="#263238"/>
<path d="M32.7731 288.885C32.8907 288.576 32.9736 288.256 33.0204 287.929C33.159 287.308 33.337 286.419 33.525 285.301C33.9109 283.074 34.3462 279.987 34.8013 276.585C35.2564 273.183 35.7313 270.105 36.1567 267.888C36.3644 266.789 36.5425 265.891 36.6711 265.27C36.7605 264.958 36.8136 264.637 36.8294 264.314C36.6796 264.618 36.5699 264.939 36.5029 265.27C36.3249 265.872 36.0973 266.761 35.85 267.86C35.3553 270.067 34.8606 273.145 34.3759 276.557C33.8911 279.968 33.525 282.96 33.2282 285.292C33.0798 286.333 32.9512 287.203 32.8622 287.929C32.7943 288.244 32.7644 288.564 32.7731 288.885Z" fill="#263238"/>
<path d="M2.68713 282.807C3.08002 282.897 3.48082 282.951 3.88424 282.969C4.65592 283.055 5.78378 283.17 7.15897 283.361C9.91924 283.705 13.7183 284.317 17.8736 285.158C22.0288 285.999 25.7883 286.945 28.4299 287.681C29.7754 288.044 30.8538 288.369 31.5958 288.589C31.9767 288.726 32.3712 288.826 32.7731 288.885C32.4118 288.71 32.0382 288.56 31.6551 288.436C30.923 288.168 29.8545 287.805 28.5189 287.404C25.8576 286.582 22.1278 285.607 17.9626 284.756C14.4064 284.018 10.8138 283.453 7.19855 283.065C5.80357 282.912 4.67572 282.845 3.90403 282.816C3.49976 282.774 3.09206 282.77 2.68713 282.807Z" fill="#263238"/>
<path d="M45.1201 321.207C45.2079 321.102 45.2811 320.986 45.3378 320.863L45.8819 319.831C46.3469 318.933 46.99 317.623 47.7617 316.008C49.3051 312.74 51.2838 308.162 53.3911 303.087C55.4984 298.012 57.4474 293.415 58.9116 290.128L60.6627 286.228L61.1376 285.167C61.2366 284.919 61.286 284.785 61.2662 284.785C61.1848 284.893 61.1151 285.008 61.0585 285.129L60.5143 286.161C60.0395 287.06 59.4063 288.369 58.6346 289.984C57.0912 293.253 55.1125 297.831 52.9953 302.905C50.8781 307.98 48.9489 312.577 47.4748 315.865C46.7624 317.47 46.1688 318.789 45.7236 319.764L45.2586 320.825C45.1956 320.946 45.149 321.074 45.1201 321.207Z" fill="#263238"/>
<path d="M5.27923 307.942C5.27923 307.942 5.40785 308.018 5.66507 308.114L6.82261 308.506L11.0966 309.939C14.6978 311.144 19.6544 312.864 25.1255 314.775C30.5966 316.687 35.573 318.359 39.2038 319.496C41.0242 320.07 42.4885 320.509 43.5174 320.796L44.6947 321.121C44.9717 321.198 45.1201 321.226 45.1201 321.207C44.9944 321.14 44.8617 321.085 44.7244 321.045L43.5669 320.643L39.3028 319.219C35.7016 318.015 30.745 316.295 25.2739 314.383C19.8028 312.472 14.8165 310.79 11.1955 309.653C9.37512 309.089 7.901 308.64 6.88197 308.353L5.69475 308.028C5.55955 307.986 5.42035 307.957 5.27923 307.942Z" fill="#263238"/>
<path d="M450.405 229.411L390.718 229.144C389.01 229.14 387.319 228.81 385.743 228.174C384.167 227.537 382.737 226.606 381.534 225.434C380.332 224.261 379.381 222.871 378.736 221.343C378.091 219.815 377.766 218.179 377.777 216.529L378.411 72.3792C378.42 70.7318 378.765 69.1022 379.426 67.5837C380.087 66.0651 381.052 64.6873 382.265 63.5291C383.478 62.3708 384.915 61.4548 386.494 60.8333C388.074 60.2119 389.764 59.8972 391.47 59.9073L451.157 60.1653C454.6 60.178 457.897 61.5092 460.324 63.8671C462.752 66.2249 464.113 69.4168 464.108 72.7424L463.474 216.901C463.469 218.552 463.127 220.186 462.467 221.709C461.807 223.232 460.842 224.615 459.628 225.777C458.414 226.939 456.974 227.858 455.391 228.482C453.809 229.106 452.114 229.422 450.405 229.411Z" fill="#455A64"/>
<path d="M451.078 65.1828H439.503C439.126 65.1877 438.755 65.2644 438.409 65.4085C438.063 65.5525 437.751 65.761 437.489 66.0221C437.227 66.2831 437.021 66.5915 436.883 66.9297C436.744 67.2678 436.676 67.629 436.683 67.9925V70.0186C436.691 70.7523 436.4 71.4594 435.872 71.9871C435.344 72.5147 434.623 72.8204 433.863 72.838L411.296 72.7328C410.917 72.7242 410.544 72.6429 410.198 72.4937C409.852 72.3444 409.54 72.1301 409.28 71.8633C409.021 71.5965 408.819 71.2825 408.686 70.9396C408.553 70.5966 408.492 70.2316 408.506 69.8657V67.8205C408.52 67.4549 408.458 67.0904 408.324 66.7481C408.191 66.4057 407.989 66.0922 407.73 65.8257C407.47 65.5591 407.159 65.3448 406.813 65.1951C406.468 65.0454 406.095 64.9632 405.716 64.9534H401.64H391.51C390.316 64.9471 389.132 65.168 388.026 65.6036C386.921 66.0392 385.915 66.6809 385.066 67.492C384.217 68.3032 383.542 69.2679 383.079 70.3311C382.616 71.3943 382.374 72.5351 382.368 73.6885L381.745 214.397C381.739 216.728 382.692 218.965 384.393 220.617C386.094 222.269 388.405 223.201 390.817 223.209L450.385 223.476C452.797 223.487 455.114 222.573 456.83 220.936C458.545 219.298 459.519 217.071 459.537 214.741L460.15 74.0326C460.159 72.8752 459.932 71.7275 459.48 70.6554C459.028 69.5833 458.362 68.608 457.519 67.7856C456.676 66.9632 455.673 66.3099 454.567 65.8632C453.462 65.4165 452.276 65.1852 451.078 65.1828Z" fill="white"/>
<path d="M450.098 160.925H391.153V164.739H450.098V160.925Z" fill="#455A64"/>
<path d="M448.001 175.921C448.001 176.054 435.417 176.169 419.904 176.169C404.391 176.169 391.796 176.054 391.796 175.921C391.796 175.787 404.381 175.672 419.904 175.672C435.427 175.672 448.001 175.787 448.001 175.921Z" fill="#455A64"/>
<path d="M448.001 85.5967C448.001 85.74 435.417 85.8452 419.904 85.8452C404.391 85.8452 391.796 85.74 391.796 85.5967C391.796 85.4533 404.381 85.3482 419.904 85.3482C435.427 85.3482 448.001 85.4342 448.001 85.5967Z" fill="#455A64"/>
<path d="M448.001 182.859C448.001 182.993 435.417 183.107 419.904 183.107C404.391 183.107 391.796 182.993 391.796 182.859C391.796 182.725 404.381 182.61 419.904 182.61C435.427 182.61 448.001 182.716 448.001 182.859Z" fill="#455A64"/>
<path d="M448.001 189.769C448.001 189.903 435.417 190.017 419.904 190.017C404.391 190.017 391.796 189.903 391.796 189.769C391.796 189.635 404.381 189.52 419.904 189.52C435.427 189.52 448.001 189.654 448.001 189.769Z" fill="#455A64"/>
<path d="M448.001 196.726C448.001 196.86 435.417 196.975 419.904 196.975C404.391 196.975 391.796 196.86 391.796 196.726C391.796 196.592 404.381 196.478 419.904 196.478C435.427 196.478 448.001 196.583 448.001 196.726Z" fill="#455A64"/>
<path d="M448.001 203.655C448.001 203.799 435.417 203.904 419.904 203.904C404.391 203.904 391.796 203.799 391.796 203.655C391.796 203.512 404.381 203.407 419.904 203.407C435.427 203.407 448.001 203.521 448.001 203.655Z" fill="#455A64"/>
<path d="M448.802 211.521C448.802 211.654 436.218 211.769 420.705 211.769C405.192 211.769 392.598 211.654 392.598 211.521C392.598 211.387 405.182 211.272 420.705 211.272C436.228 211.272 448.802 211.377 448.802 211.521Z" fill="#455A64"/>
<path d="M450.89 93.4813H391.796V148.712H450.89V93.4813Z" fill="#E0E0E0"/>
<path d="M396.377 143.981L412.731 115.558L426.097 133.726L434.219 124.073L446.309 143.981H396.377Z" fill="#EE4248"/>
<path d="M431.796 110.034C431.796 110.847 431.546 111.641 431.079 112.317C430.611 112.993 429.947 113.52 429.169 113.831C428.392 114.142 427.537 114.223 426.711 114.065C425.886 113.906 425.128 113.515 424.533 112.94C423.938 112.365 423.533 111.633 423.369 110.836C423.205 110.039 423.289 109.212 423.611 108.461C423.933 107.711 424.478 107.069 425.178 106.617C425.877 106.166 426.7 105.925 427.541 105.925C428.669 105.927 429.749 106.361 430.547 107.131C431.344 107.901 431.793 108.945 431.796 110.034Z" fill="#EE4248"/>
<path d="M446.309 144.134C446.309 144.134 446.309 144.057 446.309 143.904C446.309 143.751 446.309 143.532 446.309 143.264C446.309 142.671 446.309 141.85 446.309 140.779C446.309 138.591 446.309 135.418 446.24 131.394C446.24 123.328 446.171 111.84 446.121 98.0495L446.359 98.2789H396.436C396.367 98.3362 396.961 97.7628 396.713 98.0113V110.435C396.713 114.497 396.713 118.473 396.713 122.334C396.713 130.075 396.713 137.386 396.713 144.115L396.466 143.876L432.567 144L442.758 144.057H445.458H446.151H446.398H446.181H445.508H442.856L432.726 144.115L396.466 144.239H396.219V144C396.219 137.31 396.219 129.961 396.219 122.219C396.219 118.397 396.219 114.383 396.219 110.321V97.8966C395.962 98.1355 396.555 97.5526 396.506 97.6195H446.428H446.527V98.0209C446.468 111.879 446.428 123.414 446.398 131.518C446.398 135.513 446.398 138.667 446.339 140.846C446.339 141.897 446.339 142.71 446.339 143.283C446.339 143.541 446.339 143.742 446.339 143.904C446.34 143.982 446.33 144.059 446.309 144.134Z" fill="#455A64"/>
<path d="M140.265 11.0324V138.352C140.265 144.448 145.381 149.39 151.692 149.39H350.788C357.099 149.39 362.215 144.448 362.215 138.352V11.0324C362.215 4.93607 357.099 -0.0059967 350.788 -0.0059967H151.692C145.381 -0.0059967 140.265 4.93607 140.265 11.0324Z" fill="#455A64"/>
<path d="M155.442 4.70566V144.678H340.796V4.70566H155.442Z" fill="white"/>
<path d="M351.055 68.9578C352.229 68.9578 353.377 69.2941 354.353 69.9242C355.329 70.5543 356.09 71.4499 356.539 72.4977C356.989 73.5455 357.106 74.6984 356.877 75.8108C356.648 76.9231 356.083 77.9448 355.253 78.7468C354.422 79.5487 353.365 80.0949 352.213 80.3161C351.062 80.5374 349.868 80.4238 348.784 79.9898C347.699 79.5558 346.772 78.8208 346.12 77.8778C345.467 76.9348 345.119 75.8262 345.119 74.6921C345.119 73.1713 345.745 71.7127 346.858 70.6374C347.971 69.562 349.481 68.9578 351.055 68.9578Z" fill="#263238"/>
<path d="M146.657 53.3607V96.0234C146.657 96.6674 147.197 97.1894 147.864 97.1894H147.903C148.57 97.1894 149.11 96.6674 149.11 96.0234V53.3607C149.11 52.7168 148.57 52.1947 147.903 52.1947H147.864C147.197 52.1947 146.657 52.7168 146.657 53.3607Z" fill="#263238"/>
<path d="M298.936 15.2184H239.991V19.0317H298.936V15.2184Z" fill="#455A64"/>
<path d="M222.153 80.713H163.208V84.5263H222.153V80.713Z" fill="#455A64"/>
<path d="M313.292 29.4011C313.292 29.5445 296.889 29.6496 276.686 29.6496C256.484 29.6496 240.031 29.5445 240.031 29.4011C240.031 29.2578 256.434 29.1526 276.686 29.1526C296.938 29.1526 313.292 29.2673 313.292 29.4011Z" fill="#455A64"/>
<path d="M313.292 37.7253C313.292 37.8591 296.889 37.9738 276.686 37.9738C256.484 37.9738 240.031 37.8591 240.031 37.7253C240.031 37.5915 256.434 37.4768 276.686 37.4768C296.938 37.4768 313.292 37.5819 313.292 37.7253Z" fill="#455A64"/>
<path d="M313.292 46.04C313.292 46.1738 296.889 46.2885 276.686 46.2885C256.484 46.2885 240.031 46.1738 240.031 46.04C240.031 45.9062 256.434 45.7915 276.686 45.7915C296.938 45.7915 313.292 45.9062 313.292 46.04Z" fill="#455A64"/>
<path d="M313.292 54.3546C313.292 54.498 296.889 54.6031 276.686 54.6031C256.484 54.6031 240.031 54.498 240.031 54.3546C240.031 54.2113 256.434 54.1061 276.686 54.1061C296.938 54.1061 313.292 54.2208 313.292 54.3546Z" fill="#455A64"/>
<path d="M313.292 62.6597C313.292 62.7935 296.889 62.9082 276.686 62.9082C256.484 62.9082 240.031 62.7935 240.031 62.6597C240.031 62.5259 256.434 62.4112 276.686 62.4112C296.938 62.4112 313.292 62.5354 313.292 62.6597Z" fill="#455A64"/>
<path d="M297.215 70.9935C297.215 71.1273 284.403 71.242 268.603 71.242C252.803 71.242 239.991 71.1273 239.991 70.9935C239.991 70.8597 252.793 70.745 268.603 70.745C284.413 70.745 297.215 70.8597 297.215 70.9935Z" fill="#455A64"/>
<path d="M260.016 95.7081C260.016 95.8419 238.488 95.9566 211.934 95.9566C185.38 95.9566 163.851 95.8419 163.851 95.7081C163.851 95.5743 185.38 95.4596 211.934 95.4596C238.488 95.4596 260.016 95.5647 260.016 95.7081Z" fill="#455A64"/>
<path d="M260.016 102.637C260.016 102.78 238.488 102.885 211.934 102.885C185.38 102.885 163.851 102.78 163.851 102.637C163.851 102.494 185.38 102.388 211.934 102.388C238.488 102.388 260.016 102.503 260.016 102.637Z" fill="#455A64"/>
<path d="M260.016 109.575C260.016 109.709 238.488 109.824 211.934 109.824C185.38 109.824 163.851 109.709 163.851 109.575C163.851 109.442 185.38 109.327 211.934 109.327C238.488 109.327 260.016 109.432 260.016 109.575Z" fill="#455A64"/>
<path d="M260.016 116.504C260.016 116.648 238.488 116.753 211.934 116.753C185.38 116.753 163.851 116.648 163.851 116.504C163.851 116.361 185.38 116.256 211.934 116.256C238.488 116.256 260.016 116.37 260.016 116.504Z" fill="#455A64"/>
<path d="M260.016 123.443C260.016 123.576 238.488 123.691 211.934 123.691C185.38 123.691 163.851 123.576 163.851 123.443C163.851 123.309 185.38 123.194 211.934 123.194C238.488 123.194 260.016 123.309 260.016 123.443Z" fill="#455A64"/>
<path d="M222.945 13.2592H163.851V68.4895H222.945V13.2592Z" fill="#EE4248"/>
<path d="M168.432 63.7683L184.786 35.3456L198.152 53.504L206.274 43.8609L218.364 63.7683H168.432Z" fill="#E0E0E0"/>
<path d="M203.851 29.8121C203.853 30.6253 203.605 31.4207 203.138 32.0978C202.672 32.7749 202.008 33.3031 201.231 33.6156C200.454 33.9281 199.598 34.0109 198.773 33.8534C197.947 33.6959 197.188 33.3053 196.592 32.7309C195.996 32.1566 195.59 31.4243 195.425 30.6269C195.26 29.8295 195.343 29.0027 195.665 28.2512C195.987 27.4997 196.532 26.8573 197.232 26.4054C197.932 25.9534 198.755 25.7121 199.596 25.7121C200.723 25.7121 201.804 26.1438 202.601 26.9124C203.399 27.681 203.848 28.7238 203.851 29.8121Z" fill="#E0E0E0"/>
<path d="M218.364 63.9213C218.364 63.9213 218.364 63.8353 218.364 63.6919C218.364 63.5486 218.364 63.3192 218.364 63.0516C218.364 62.459 218.364 61.6276 218.364 60.5667C218.364 58.3686 218.364 55.2052 218.305 51.1817C218.305 43.1155 218.236 31.6279 218.186 17.8371L218.424 18.0665H168.501C168.432 18.1238 169.026 17.5599 168.778 17.8084V24.0492C168.778 26.1135 168.778 28.1683 168.778 30.1944V42.0929C168.778 49.8342 168.778 57.1453 168.778 63.8735L168.531 63.6346L204.632 63.7493L214.813 63.8162H217.513H218.216H218.463H218.246H217.573H214.921L204.79 63.883L168.531 63.9977H168.284V63.7588C168.284 57.0689 168.284 49.7195 168.284 41.9783C168.284 38.1108 168.284 34.1446 168.284 30.0797V17.6555C168.026 17.8944 168.62 17.3115 168.571 17.3688H218.493H218.74V17.6077C218.691 31.4559 218.651 43.0009 218.621 51.1053C218.621 55.1001 218.572 58.2539 218.562 60.4329C218.562 61.4747 218.562 62.3444 218.562 62.87C218.562 63.128 218.562 63.3287 218.562 63.4912C218.555 63.6536 218.484 63.8074 218.364 63.9213Z" fill="#455A64"/>
<path d="M315.102 88.0338H273.283V127.122H315.102V88.0338Z" fill="#EE4248"/>
<path d="M276.528 123.777L288.093 103.669L297.561 116.523L303.309 109.69L311.857 123.777H276.528Z" fill="#E0E0E0"/>
<path d="M301.588 99.7507C301.588 100.318 301.414 100.872 301.088 101.344C300.762 101.815 300.298 102.183 299.756 102.4C299.213 102.617 298.617 102.673 298.041 102.563C297.465 102.452 296.936 102.179 296.521 101.778C296.106 101.377 295.823 100.866 295.709 100.31C295.594 99.7538 295.653 99.1774 295.878 98.6535C296.102 98.1296 296.483 97.6818 296.971 97.3668C297.459 97.0517 298.033 96.8835 298.62 96.8835C299.407 96.8835 300.162 97.1856 300.719 97.7233C301.275 98.261 301.588 98.9903 301.588 99.7507Z" fill="#E0E0E0"/>
<path d="M311.857 123.882C311.857 123.882 311.857 123.825 311.857 123.729C311.857 123.634 311.857 123.462 311.857 123.271C311.857 122.85 311.857 122.315 311.857 121.512C311.857 119.964 311.857 117.689 311.857 114.822C311.857 109.088 311.808 100.984 311.768 91.2258L311.936 91.3883H276.607C276.557 91.3883 276.983 91.0251 276.805 91.2067V99.9801C276.805 102.847 276.805 105.654 276.805 108.4C276.805 113.876 276.805 119.046 276.805 123.806L276.637 123.643L302.083 123.825H309.285H311.204H311.867C311.867 123.825 311.818 123.825 311.719 123.825H311.244H309.364L302.191 123.873L276.538 123.959H276.36V123.787C276.36 119.008 276.36 113.857 276.36 108.381V91.3309C276.182 91.4934 276.607 91.0825 276.567 91.1302H311.897H312.075V91.2927C312.075 101.098 312.006 109.26 311.986 114.994C311.986 117.861 311.986 120.059 311.936 121.598C311.936 122.344 311.936 122.917 311.936 123.328C311.936 123.51 311.936 123.653 311.936 123.768C311.936 123.882 311.867 123.892 311.857 123.882Z" fill="#455A64"/>
<path d="M345.208 164.49H63.7891C55.828 164.49 49.3743 170.725 49.3743 178.415V348.751C49.3743 356.441 55.828 362.675 63.7891 362.675H345.208C353.169 362.675 359.623 356.441 359.623 348.751V178.415C359.623 170.725 353.169 164.49 345.208 164.49Z" fill="#263238"/>
<path d="M36.4041 348.024H372.534V348.359C372.534 352.87 370.678 357.197 367.376 360.388C364.073 363.578 359.594 365.37 354.924 365.37H54.0144C49.3438 365.37 44.8646 363.578 41.562 360.388C38.2594 357.197 36.4041 352.87 36.4041 348.359V348.024Z" fill="#263238"/>
<path d="M350.432 172.365H57.7046V339.729H350.432V172.365Z" fill="#E0E0E0"/>
<path d="M173.913 348.024L178.088 354.437H236.776L240.654 348.024H173.913Z" fill="#455A64"/>
<path d="M336.977 183.518H67.4695V339.671H336.977V183.518Z" fill="#FAFAFA"/>
<path d="M78.9755 191.212C78.9775 191.645 78.8463 192.069 78.5985 192.43C78.3508 192.792 77.9976 193.074 77.5838 193.241C77.17 193.408 76.7142 193.452 76.274 193.369C75.8339 193.286 75.4293 193.078 75.1114 192.772C74.7936 192.467 74.5768 192.077 74.4886 191.652C74.4004 191.227 74.4447 190.787 74.6159 190.386C74.787 189.986 75.0774 189.643 75.4502 189.402C75.823 189.161 76.2614 189.033 76.7099 189.033C77.3091 189.033 77.8839 189.262 78.3085 189.67C78.7331 190.079 78.9729 190.633 78.9755 191.212Z" fill="#455A64"/>
<path d="M88.1962 191.212C88.1982 191.645 88.0667 192.07 87.8185 192.431C87.5703 192.793 87.2166 193.075 86.8022 193.241C86.3878 193.408 85.9315 193.452 85.4911 193.368C85.0507 193.284 84.6461 193.076 84.3286 192.769C84.0112 192.462 83.7952 192.071 83.7081 191.646C83.621 191.221 83.6667 190.78 83.8394 190.379C84.0121 189.979 84.304 189.637 84.6781 189.398C85.0522 189.158 85.4916 189.031 85.9405 189.033C86.5388 189.033 87.1125 189.262 87.5355 189.671C87.9586 190.08 88.1962 190.634 88.1962 191.212Z" fill="#455A64"/>
<path d="M97.4268 191.212C97.4288 191.645 97.2976 192.069 97.0498 192.43C96.8021 192.791 96.4489 193.073 96.0351 193.241C95.6213 193.408 95.1655 193.452 94.7253 193.369C94.2852 193.286 93.8806 193.078 93.5627 192.772C93.2449 192.467 93.0281 192.077 92.9399 191.652C92.8517 191.227 92.896 190.787 93.0672 190.386C93.2384 189.986 93.5287 189.643 93.9015 189.402C94.2743 189.161 94.7127 189.033 95.1612 189.033C95.4583 189.032 95.7527 189.087 96.0275 189.196C96.3023 189.305 96.5521 189.465 96.7627 189.668C96.9732 189.87 97.1402 190.111 97.2542 190.376C97.3682 190.641 97.4268 190.925 97.4268 191.212Z" fill="#455A64"/>
<path d="M336.977 200.769C336.977 200.912 276.627 201.017 202.228 201.017C127.829 201.017 67.4695 200.912 67.4695 200.769C67.4695 200.626 127.819 200.52 202.228 200.52C276.637 200.52 336.977 200.635 336.977 200.769Z" fill="#455A64"/>
<path d="M359.623 348.158H49.3743V349.114H359.623V348.158Z" fill="#455A64"/>
<path d="M148.507 276.642H89.5615V280.456H148.507V276.642Z" fill="#455A64"/>
<path d="M224.647 223.754H165.701V227.567H224.647V223.754Z" fill="#455A64"/>
<path d="M312.322 237.946C312.322 238.08 279.496 238.194 239.012 238.194C198.528 238.194 165.701 238.08 165.701 237.946C165.701 237.812 198.518 237.688 239.012 237.688C279.506 237.688 312.322 237.803 312.322 237.946Z" fill="#455A64"/>
<path d="M312.322 246.26C312.322 246.394 279.496 246.509 239.012 246.509C198.528 246.509 165.701 246.394 165.701 246.26C165.701 246.127 198.518 246.012 239.012 246.012C279.506 246.012 312.322 246.155 312.322 246.26Z" fill="#455A64"/>
<path d="M312.322 254.575C312.322 254.719 279.496 254.824 239.012 254.824C198.528 254.824 165.701 254.719 165.701 254.575C165.701 254.432 198.518 254.327 239.012 254.327C279.506 254.327 312.322 254.441 312.322 254.575Z" fill="#455A64"/>
<path d="M312.322 262.899C312.322 263.033 279.496 263.148 239.012 263.148C198.528 263.148 165.701 263.033 165.701 262.899C165.701 262.766 198.518 262.641 239.012 262.641C279.506 262.641 312.322 262.756 312.322 262.899Z" fill="#455A64"/>
<path d="M312.322 271.214C312.322 271.348 279.496 271.463 239.012 271.463C198.528 271.463 165.701 271.348 165.701 271.214C165.701 271.08 198.518 270.966 239.012 270.966C279.506 270.966 312.322 271.071 312.322 271.214Z" fill="#455A64"/>
<path d="M222.935 279.529C222.935 279.663 210.123 279.777 194.323 279.777C178.523 279.777 165.701 279.663 165.701 279.529C165.701 279.395 178.563 279.28 194.323 279.28C210.083 279.28 222.935 279.395 222.935 279.529Z" fill="#455A64"/>
<path d="M311.244 295.671C311.244 295.814 289.666 295.919 263.063 295.919C236.459 295.919 214.882 295.814 214.882 295.671C214.882 295.527 236.449 295.422 263.063 295.422C289.676 295.422 311.244 295.537 311.244 295.671Z" fill="#455A64"/>
<path d="M311.244 304.501C311.244 304.635 289.666 304.75 263.063 304.75C236.459 304.75 214.882 304.635 214.882 304.501C214.882 304.367 236.449 304.253 263.063 304.253C289.676 304.253 311.244 304.367 311.244 304.501Z" fill="#455A64"/>
<path d="M311.244 313.332C311.244 313.466 289.666 313.581 263.063 313.581C236.459 313.581 214.882 313.466 214.882 313.332C214.882 313.198 236.449 313.084 263.063 313.084C289.676 313.084 311.244 313.189 311.244 313.332Z" fill="#455A64"/>
<path d="M311.244 322.163C311.244 322.297 289.666 322.411 263.063 322.411C236.459 322.411 214.882 322.297 214.882 322.163C214.882 322.029 236.449 321.914 263.063 321.914C289.676 321.914 311.244 322.019 311.244 322.163Z" fill="#455A64"/>
<path d="M148.655 294.83C148.655 294.963 135.794 295.078 119.964 295.078C104.135 295.078 91.2731 294.963 91.2731 294.83C91.2731 294.696 104.135 294.581 119.964 294.581C135.794 294.581 148.655 294.686 148.655 294.83Z" fill="#455A64"/>
<path d="M148.655 301.758C148.655 301.902 135.794 302.007 119.964 302.007C104.135 302.007 91.2731 301.902 91.2731 301.758C91.2731 301.615 104.135 301.51 119.964 301.51C135.794 301.51 148.655 301.586 148.655 301.758Z" fill="#455A64"/>
<path d="M148.655 308.697C148.655 308.831 135.794 308.945 119.964 308.945C104.135 308.945 91.2731 308.831 91.2731 308.697C91.2731 308.563 104.135 308.448 119.964 308.448C135.794 308.448 148.655 308.563 148.655 308.697Z" fill="#455A64"/>
<path d="M148.655 315.626C148.655 315.769 135.794 315.874 119.964 315.874C104.135 315.874 91.2731 315.769 91.2731 315.626C91.2731 315.482 104.135 315.377 119.964 315.377C135.794 315.377 148.655 315.492 148.655 315.626Z" fill="#455A64"/>
<path d="M148.655 322.612C148.655 322.746 135.794 322.86 119.964 322.86C104.135 322.86 91.2731 322.746 91.2731 322.612C91.2731 322.478 104.135 322.363 119.964 322.363C135.794 322.363 148.655 322.43 148.655 322.612Z" fill="#455A64"/>
<path d="M148.655 211.31H89.5615V266.541H148.655V211.31Z" fill="#E0E0E0"/>
<path d="M94.1422 261.81L110.496 233.387L123.862 251.555L131.995 241.912L144.074 261.81H94.1422Z" fill="#EE4248"/>
<path d="M129.561 227.863C129.561 228.676 129.311 229.47 128.844 230.146C128.376 230.822 127.712 231.349 126.935 231.66C126.157 231.971 125.302 232.052 124.477 231.894C123.651 231.735 122.893 231.344 122.298 230.769C121.703 230.194 121.298 229.462 121.134 228.665C120.97 227.868 121.054 227.041 121.376 226.29C121.698 225.54 122.243 224.898 122.943 224.446C123.643 223.995 124.465 223.754 125.307 223.754C126.435 223.754 127.517 224.187 128.315 224.957C129.112 225.728 129.561 226.773 129.561 227.863Z" fill="#EE4248"/>
<path d="M144.074 261.963C144.07 261.89 144.07 261.816 144.074 261.743C144.074 261.571 144.074 261.361 144.074 261.093C144.074 260.51 144.074 259.679 144.074 258.608C144.074 256.42 144.074 253.256 144.005 249.233C144.005 241.167 143.936 229.679 143.886 215.879L144.124 216.118H94.2015C94.1323 216.175 94.7259 215.601 94.4786 215.85V228.274C94.4786 232.326 94.4786 236.302 94.4786 240.173C94.4786 247.904 94.4786 255.215 94.4786 261.944L94.2312 261.714L130.332 261.829L140.523 261.896H143.224H144.163C144.163 261.896 144.094 261.896 143.946 261.896H143.273H140.622L130.491 261.963L94.2312 262.077H93.9938V261.839C93.9938 255.149 93.9938 247.799 93.9938 240.068C93.9938 236.197 93.9938 232.221 93.9938 228.169V215.745L94.2807 215.468H144.203H144.45V215.697C144.45 229.555 144.351 241.09 144.322 249.195C144.322 253.199 144.322 256.343 144.262 258.522C144.262 259.574 144.262 260.386 144.262 260.969C144.262 261.227 144.262 261.428 144.262 261.581C144.262 261.733 144.084 261.972 144.074 261.963Z" fill="#455A64"/>
<path d="M207.482 291.456H165.662V330.544H207.482V291.456Z" fill="#E0E0E0"/>
<path d="M168.907 327.199L180.472 307.091L189.94 319.945L195.689 313.112L204.246 327.199H168.907Z" fill="#EE4248"/>
<path d="M193.967 303.173C193.967 303.74 193.793 304.294 193.467 304.766C193.141 305.237 192.677 305.605 192.135 305.822C191.593 306.039 190.996 306.096 190.42 305.985C189.844 305.874 189.315 305.601 188.9 305.2C188.485 304.799 188.203 304.288 188.088 303.732C187.974 303.176 188.032 302.6 188.257 302.076C188.482 301.552 188.862 301.104 189.35 300.789C189.838 300.474 190.412 300.306 190.999 300.306C191.786 300.306 192.541 300.608 193.098 301.145C193.654 301.683 193.967 302.412 193.967 303.173Z" fill="#EE4248"/>
<path d="M204.246 327.314C204.243 327.26 204.243 327.206 204.246 327.152C204.246 327.037 204.246 326.884 204.246 326.693C204.246 326.282 204.246 325.737 204.246 324.934C204.246 323.386 204.246 321.111 204.197 318.292C204.197 312.558 204.197 304.453 204.118 294.696L204.286 294.858H168.947C168.947 294.858 169.322 294.495 169.144 294.677V311.879C169.144 317.356 169.144 322.526 169.144 327.295L168.966 327.123L194.521 327.209L201.724 327.257H203.633H201.753H194.59L168.927 327.343H168.759V327.18C168.759 322.402 168.759 317.241 168.759 311.765C168.759 309.031 168.759 306.212 168.759 303.345V294.591C168.58 294.753 168.996 294.342 168.956 294.39H204.296H204.464V294.552C204.464 304.358 204.395 312.52 204.375 318.263C204.375 321.131 204.375 323.319 204.375 324.858C204.375 325.603 204.375 326.177 204.375 326.588C204.375 326.769 204.375 326.913 204.375 327.027C204.352 327.13 204.308 327.227 204.246 327.314Z" fill="#455A64"/>
<path d="M556.69 348.416L546.797 347.279L544.472 365.189L558.946 366.995L559.164 365.896C560.094 360.984 563.507 340.876 562.893 337.445C562.211 333.622 556.69 348.416 556.69 348.416Z" fill="#EE4248"/>
<path d="M562.033 336.164C562.211 336.164 561.528 342.911 560.509 351.178C559.49 359.445 558.531 366.135 558.352 366.116C558.174 366.097 558.867 359.426 559.876 351.102C560.885 342.777 561.855 336.145 562.033 336.164Z" fill="#263238"/>
<path d="M558.748 347.575C558.649 347.709 558.135 347.518 557.66 347.078C557.185 346.638 556.987 346.122 557.126 346.036C557.264 345.95 557.68 346.227 558.115 346.638C558.55 347.049 558.857 347.46 558.748 347.575Z" fill="#263238"/>
<path d="M559.54 346.505C559.46 346.658 558.877 346.505 558.303 346.084C557.729 345.664 557.413 345.128 557.541 345.033C557.67 344.937 558.155 345.195 558.689 345.587C559.223 345.979 559.629 346.352 559.54 346.505Z" fill="#263238"/>
<path d="M558.956 360.706C558.956 360.783 558.709 361.022 558.214 361.366C557.585 361.779 556.999 362.25 556.463 362.771C555.956 363.289 555.589 363.919 555.394 364.606C555.256 365.141 555.295 365.495 555.196 365.514C555.097 365.533 554.919 365.179 554.949 364.558C555.019 363.743 555.367 362.973 555.938 362.369C556.504 361.799 557.175 361.336 557.917 361.003C558.54 360.735 558.906 360.63 558.956 360.706Z" fill="#263238"/>
<path d="M556.898 347.307C557.056 347.241 557.373 347.594 557.492 348.12C557.61 348.645 557.492 349.075 557.314 349.075C557.135 349.075 556.977 348.693 556.868 348.225C556.76 347.757 556.73 347.374 556.898 347.307Z" fill="#263238"/>
<path d="M555.909 347.46C556.077 347.46 556.166 347.957 556.107 348.569C556.047 349.181 555.839 349.639 555.671 349.601C555.503 349.563 555.404 349.075 555.473 348.502C555.543 347.929 555.731 347.46 555.909 347.46Z" fill="#263238"/>
<path d="M550.655 366.613L495.816 361.242L382.101 363.698L412.335 340.149L488.228 336.632L554.583 345.463L550.655 366.613Z" fill="#263238"/>
<path d="M457.964 351.904C457.964 352.048 447.289 352.153 434.12 352.153C420.952 352.153 410.287 352.048 410.287 351.904C410.287 351.761 420.952 351.656 434.12 351.656C447.289 351.656 457.964 351.771 457.964 351.904Z" fill="#455A64"/>
<path d="M452.661 338.276L456.559 361.968H464.038L458.35 338.018L452.661 338.276Z" fill="black"/>
<path d="M481.609 362.283L480.501 352.726L461.911 354.638L463.346 368.629H464.503C469.668 368.381 490.711 367.024 494.025 365.667C497.765 364.109 481.609 362.283 481.609 362.283Z" fill="#EE4248"/>
<path d="M494.411 364.663C494.411 364.835 487.486 365.724 478.928 366.651C470.37 367.578 463.405 368.19 463.385 368.018C463.365 367.846 470.311 366.966 478.859 366.039C487.407 365.112 494.391 364.529 494.411 364.663Z" fill="#263238"/>
<path d="M482.143 364.204C481.975 364.137 482.054 363.612 482.391 363.067C482.727 362.522 483.192 362.216 483.321 362.322C483.449 362.427 483.251 362.885 482.945 363.382C482.638 363.879 482.321 364.271 482.143 364.204Z" fill="#263238"/>
<path d="M483.419 364.663C483.251 364.663 483.271 364.042 483.568 363.402C483.865 362.761 484.3 362.36 484.448 362.446C484.597 362.532 484.448 363.048 484.152 363.64C483.855 364.233 483.588 364.749 483.419 364.663Z" fill="#263238"/>
<path d="M468.965 367.377C468.906 367.435 468.589 367.215 468.134 366.833C467.575 366.336 466.969 365.892 466.324 365.504C465.685 365.145 464.965 364.945 464.226 364.921C463.662 364.921 463.306 365.026 463.237 364.921C463.168 364.816 463.504 364.587 464.157 364.472C465.007 364.356 465.873 364.524 466.611 364.95C467.313 365.358 467.931 365.889 468.431 366.517C468.847 367.005 469.034 367.32 468.965 367.377Z" fill="#263238"/>
<path d="M482.005 362.398C482.114 362.532 481.827 362.905 481.322 363.143C480.817 363.382 480.333 363.363 480.333 363.201C480.333 363.038 480.639 362.799 481.085 362.589C481.53 362.379 481.906 362.255 482.005 362.398Z" fill="#263238"/>
<path d="M481.609 361.5C481.609 361.672 481.164 361.863 480.541 361.939C479.917 362.016 479.403 361.939 479.393 361.767C479.383 361.595 479.868 361.404 480.461 361.328C481.055 361.251 481.569 361.337 481.609 361.5Z" fill="#263238"/>
<path d="M372.84 252.96L388.67 252.683C388.888 250.915 389.194 244.024 389.194 244.024C389.194 244.024 395.823 243.422 396.308 237.095C396.792 230.769 396.585 216.127 396.585 216.127C392.952 214.356 388.896 213.553 384.835 213.802C380.774 214.05 376.855 215.341 373.484 217.542L372.494 218.211L372.84 252.96Z" fill="#B78876"/>
<path d="M394.398 226.936C394.226 226.759 394.13 226.525 394.13 226.281C394.13 226.038 394.226 225.804 394.398 225.627C394.534 225.487 394.71 225.39 394.904 225.349C395.097 225.307 395.299 225.322 395.483 225.393C395.668 225.464 395.826 225.586 395.937 225.744C396.049 225.903 396.108 226.09 396.108 226.281C396.108 226.473 396.049 226.66 395.937 226.819C395.826 226.977 395.668 227.099 395.483 227.17C395.299 227.241 395.097 227.256 394.904 227.214C394.71 227.173 394.534 227.076 394.398 226.936Z" fill="#263238"/>
<path d="M396.07 225.579C395.961 225.684 395.348 225.168 394.448 225.111C393.547 225.053 392.855 225.464 392.766 225.35C392.677 225.235 392.835 225.101 393.132 224.91C393.536 224.665 394.011 224.551 394.487 224.585C394.962 224.614 395.414 224.792 395.773 225.092C396.07 225.331 396.139 225.531 396.07 225.579Z" fill="#263238"/>
<path d="M385.623 225.722C385.764 225.884 385.846 226.087 385.856 226.299C385.865 226.51 385.801 226.719 385.674 226.892C385.548 227.065 385.365 227.192 385.155 227.254C384.945 227.315 384.72 227.308 384.515 227.232C384.374 227.18 384.247 227.098 384.144 226.991C384.041 226.885 383.965 226.757 383.921 226.617C383.877 226.478 383.867 226.33 383.891 226.186C383.915 226.042 383.973 225.906 384.06 225.787C384.147 225.668 384.262 225.57 384.394 225.5C384.527 225.43 384.674 225.391 384.825 225.385C384.976 225.378 385.126 225.406 385.265 225.464C385.403 225.523 385.525 225.611 385.623 225.722Z" fill="#263238"/>
<path d="M386.177 225.761C386.068 225.866 385.455 225.35 384.544 225.292C383.634 225.235 382.961 225.646 382.862 225.531C382.764 225.417 382.932 225.283 383.238 225.092C383.642 224.846 384.116 224.732 384.592 224.766C385.067 224.801 385.519 224.982 385.88 225.283C386.177 225.512 386.266 225.722 386.177 225.761Z" fill="#263238"/>
<path d="M389.382 233.186C389.858 233.036 390.356 232.965 390.856 232.976C391.094 232.976 391.292 232.919 391.312 232.804C391.336 232.574 391.291 232.342 391.183 232.135L390.579 230.319C389.999 228.771 389.581 227.17 389.333 225.541C390.076 227.018 390.659 228.565 391.074 230.157C391.272 230.788 391.45 231.39 391.638 231.982C391.773 232.284 391.797 232.621 391.707 232.938C391.666 233.023 391.606 233.099 391.531 233.158C391.455 233.218 391.367 233.26 391.272 233.282C391.137 233.3 391.001 233.3 390.866 233.282C390.37 233.33 389.868 233.297 389.382 233.186Z" fill="#263238"/>
<path d="M386.385 233.98C385.474 233.378 388.888 235.461 390.738 235.48C390.4 235.921 389.919 236.239 389.372 236.383C388.824 236.527 388.242 236.488 387.72 236.273C385.801 235.461 386.385 233.98 386.385 233.98Z" fill="white"/>
<path d="M389.234 243.929C386.198 243.8 383.271 242.802 380.824 241.062C380.824 241.062 382.556 245.744 389.145 245.563L389.234 243.929Z" fill="#A36957"/>
<path d="M397.06 213.843C397.436 213.831 397.804 213.736 398.136 213.565C398.469 213.394 398.756 213.151 398.976 212.856C399.196 212.561 399.344 212.221 399.407 211.863C399.47 211.504 399.447 211.137 399.34 210.788C399.233 210.439 399.044 210.119 398.789 209.852C398.534 209.584 398.219 209.377 397.868 209.246C397.517 209.114 397.139 209.062 396.764 209.094C396.389 209.125 396.026 209.24 395.704 209.428C396.49 208.803 397.131 208.024 397.584 207.143C397.802 206.701 397.874 206.204 397.791 205.721C397.708 205.237 397.473 204.79 397.119 204.439C396.706 204.165 396.224 204.004 395.724 203.974C395.224 203.943 394.725 204.045 394.28 204.267C392.885 204.85 391.786 205.987 390.322 206.465C388.858 206.943 387.295 206.704 385.761 206.771C384.052 206.802 382.397 207.354 381.032 208.348C380.36 208.85 379.82 209.497 379.454 210.237C379.088 210.977 378.907 211.79 378.925 212.61C376.778 212.362 374.404 212.333 372.712 213.623C372.031 214.208 371.493 214.932 371.136 215.741C370.778 216.551 370.61 217.427 370.644 218.306C370.809 220.062 371.243 221.785 371.93 223.419C372.05 223.898 372.273 224.347 372.583 224.738L373.385 229.287L376.303 229.23L376.115 219.768C376.115 219.768 375.818 215.773 379.38 216.127C382.942 216.481 387.76 220.351 394.675 219.367C395.806 219.309 396.909 219.006 397.901 218.478C398.381 218.186 398.772 217.775 399.033 217.288C399.294 216.8 399.415 216.254 399.385 215.707C399.324 215.165 399.048 214.667 398.614 214.319C398.18 213.971 397.622 213.8 397.06 213.843Z" fill="#263238"/>
<path d="M373.751 223.83C373.602 223.782 368.873 223.19 369.318 228.609C369.764 234.028 375.254 231.782 375.254 231.629C375.254 231.476 373.751 223.83 373.751 223.83Z" fill="#B78876"/>
<path d="M373.394 229.841C373.394 229.841 373.296 229.908 373.137 229.994C372.915 230.107 372.657 230.135 372.415 230.071C372.037 229.877 371.719 229.59 371.493 229.239C371.268 228.889 371.142 228.486 371.129 228.073C371.073 227.612 371.127 227.145 371.287 226.707C371.325 226.533 371.406 226.371 371.523 226.234C371.64 226.098 371.79 225.991 371.96 225.923C372.07 225.886 372.19 225.888 372.298 225.929C372.407 225.969 372.497 226.045 372.554 226.143C372.643 226.286 372.613 226.391 372.643 226.401C372.672 226.41 372.761 226.305 372.692 226.086C372.654 225.951 372.566 225.836 372.445 225.761C372.365 225.71 372.276 225.676 372.183 225.66C372.089 225.643 371.993 225.645 371.901 225.665C371.664 225.727 371.448 225.848 371.274 226.015C371.1 226.183 370.975 226.392 370.911 226.621C370.709 227.105 370.637 227.631 370.703 228.15C370.714 228.631 370.872 229.098 371.157 229.493C371.443 229.888 371.842 230.192 372.306 230.367C372.46 230.399 372.619 230.396 372.771 230.36C372.924 230.323 373.066 230.254 373.187 230.157C373.394 229.966 373.414 229.851 373.394 229.841Z" fill="#A36957"/>
<path d="M359.999 347.46C362.967 351.732 380.963 377.9 402.452 358.871C429.827 334.654 451.474 313.437 451.474 313.437L459.606 361.366L485.091 360.028C485.091 360.028 475.198 288.665 468.886 282.176C461.872 274.932 455.421 275.543 400.334 317.537L359.999 347.46Z" fill="#455A64"/>
<path d="M451.157 266.187L474.961 249.405L476.128 251.211L452.483 268.194L451.157 266.187Z" fill="#263238"/>
<path d="M457.044 265.671C457.044 265.671 460.229 257.643 461.001 255.932C461.773 254.222 462.93 251.24 463.385 251.154C463.84 251.068 465.502 251.345 463.385 256.448C461.268 261.552 465.958 258.436 465.958 258.436L470.538 255.263C470.538 255.263 474.159 265.719 472.101 268.873C470.484 271.227 468.667 273.449 466.67 275.515L457.044 265.671Z" fill="#B78876"/>
<path d="M457.311 264.734C456.836 263.693 426.562 289.516 420.537 290.395L402.887 268.194C402.887 268.194 399.226 262.574 391.361 252.96C386.276 246.757 372.267 248.048 368.606 255.607C362.353 268.452 362.274 282.73 358.94 310.513L357.486 329.302C357.172 333.3 357.235 337.318 357.674 341.306C358.208 345.96 359.296 350.863 361.532 350.165L401.907 317.929L403.203 303.288C411.692 311.602 414.334 313.342 418.746 312.673C429.856 311.01 468.748 277.225 468.748 277.225C468.748 277.225 457.776 265.786 457.311 264.734Z" fill="#EE4248"/>
<path d="M463.534 281.918C462.746 281.46 462.018 280.911 461.367 280.284C459.712 278.857 458.162 277.321 456.727 275.687C455.283 274.059 453.96 272.335 452.77 270.526C452.24 269.797 451.792 269.015 451.434 268.194C452.033 268.863 452.579 269.576 453.066 270.325C454.056 271.654 455.441 273.469 457.113 275.362C458.785 277.254 460.407 278.879 461.614 280.026C462.299 280.612 462.941 281.244 463.534 281.918Z" fill="#263238"/>
<path d="M418.825 299.197C418.841 297.701 419.027 296.21 419.379 294.753C419.573 293.268 419.931 291.807 420.448 290.395C420.432 291.892 420.246 293.382 419.894 294.839C419.701 296.325 419.343 297.786 418.825 299.197Z" fill="#263238"/>
<path d="M422.684 298.28C422.072 297.064 421.62 295.78 421.338 294.457C420.901 293.177 420.619 291.852 420.497 290.51C421.109 291.725 421.56 293.009 421.843 294.333C422.278 295.613 422.56 296.937 422.684 298.28Z" fill="#263238"/>
<path d="M378.974 272.093C379.337 272.479 379.667 272.891 379.964 273.326L382.595 276.786C384.821 279.701 387.928 283.715 391.401 288.101L400.354 299.321L403.055 302.733C403.42 303.137 403.751 303.568 404.044 304.023C403.647 303.66 403.28 303.267 402.946 302.848C402.264 302.074 401.304 300.937 400.117 299.541C397.752 296.722 394.517 292.803 391.044 288.407C387.572 284.011 384.505 279.959 382.358 276.987C381.28 275.505 380.379 274.291 379.845 273.441C379.518 273.015 379.227 272.564 378.974 272.093Z" fill="#263238"/>
<path d="M373.81 290.978C372.764 290.405 371.807 289.691 370.971 288.856C370.02 288.138 369.177 287.295 368.468 286.352C369.52 286.925 370.48 287.643 371.317 288.484C372.27 289.192 373.11 290.033 373.81 290.978Z" fill="#263238"/>
<path d="M370.347 301.749C369.315 303.814 367.983 305.725 366.39 307.426C366.825 306.353 367.422 305.348 368.161 304.444C368.753 303.449 369.489 302.542 370.347 301.749Z" fill="#263238"/>
<path d="M375.215 316.61C375.106 316.696 374.226 315.836 373.236 314.699C372.569 314.05 372.027 313.293 371.633 312.462C371.742 312.376 372.623 313.236 373.612 314.374C374.28 315.021 374.823 315.778 375.215 316.61Z" fill="#263238"/>
<path d="M365.796 326.138C365.172 326.845 364.421 327.437 363.58 327.887C362.834 328.472 361.986 328.925 361.077 329.225C361.701 328.519 362.452 327.926 363.293 327.476C364.04 326.892 364.887 326.439 365.796 326.138Z" fill="#263238"/>
<path d="M378.964 328.662C377.916 328.22 377.008 327.518 376.333 326.626C375.53 325.828 374.96 324.839 374.681 323.759C374.819 323.692 375.541 324.953 376.719 326.282C377.896 327.61 379.054 328.537 378.964 328.662Z" fill="#263238"/>
<path d="M391.242 319.659C390.519 320.573 389.667 321.383 388.71 322.067C387.858 322.871 386.892 323.553 385.84 324.093C386.563 323.179 387.416 322.368 388.373 321.685C389.223 320.879 390.189 320.196 391.242 319.659Z" fill="#263238"/>
<path d="M365.974 337.043C364.284 336.294 362.941 334.966 362.205 333.316C362.324 333.239 363.066 334.157 364.105 335.17C365.143 336.183 366.063 336.948 365.974 337.043Z" fill="#263238"/>
<path d="M393.429 311.143C391.729 312.083 389.769 312.491 387.819 312.309C389.668 311.832 391.54 311.443 393.429 311.143Z" fill="#263238"/>
<path d="M384.287 301.099C384.082 302.264 383.751 303.404 383.298 304.501C382.975 305.605 382.589 306.689 382.14 307.751H382.031C382.031 307.693 382.091 307.674 382.111 307.674C382.13 307.674 382.111 307.674 382.111 307.779H382.002C382.118 306.632 382.377 305.503 382.773 304.415C383.075 303.234 383.588 302.111 384.287 301.099Z" fill="#263238"/>
<path d="M388.155 294.724C387.082 294.291 386.081 293.705 385.187 292.985C384.206 292.4 383.322 291.675 382.566 290.835C383.619 291.277 384.602 291.863 385.484 292.574C386.481 293.158 387.382 293.882 388.155 294.724Z" fill="#263238"/>
<path d="M380.241 280.676C379.942 281.624 379.443 282.502 378.776 283.256C378.241 284.101 377.534 284.832 376.699 285.406C377.142 284.525 377.701 283.703 378.361 282.96C378.878 282.12 379.51 281.351 380.241 280.676Z" fill="#263238"/>
<path d="M368.191 278.764C368.025 277.69 368.025 276.598 368.191 275.524C368.203 274.44 368.383 273.365 368.725 272.332C368.903 273.402 368.903 274.493 368.725 275.562C368.722 276.65 368.542 277.731 368.191 278.764Z" fill="#263238"/>
<path d="M363.491 299.828C363.223 298.684 363.116 297.511 363.175 296.34C363.074 295.174 363.141 294 363.372 292.851C363.755 295.159 363.795 297.509 363.491 299.828Z" fill="#263238"/>
<path d="M362.838 320.032C362.389 319.412 362.088 318.703 361.958 317.958C361.665 317.257 361.53 316.505 361.562 315.75C362.317 317.066 362.753 318.53 362.838 320.032Z" fill="#263238"/>
<path d="M379.499 263.005C378.713 263.875 377.86 264.687 376.946 265.432C376.155 266.299 375.291 267.101 374.364 267.831C374.902 266.775 375.66 265.838 376.59 265.078C377.398 264.198 378.389 263.491 379.499 263.005Z" fill="#263238"/>
<path d="M372.425 260.72C372.211 259.679 372.171 258.611 372.306 257.557C372.266 256.495 372.4 255.434 372.702 254.413C372.91 255.455 372.95 256.522 372.821 257.576C372.855 258.638 372.721 259.698 372.425 260.72Z" fill="#263238"/>
<path d="M389.758 258.446C387.899 257.36 386.102 256.176 384.376 254.9C386.458 255.611 388.313 256.833 389.758 258.446Z" fill="#263238"/>
<path d="M385.989 270.373C385.715 269.279 385.605 268.152 385.662 267.028C385.556 265.907 385.619 264.777 385.85 263.674C386.238 265.885 386.285 268.139 385.989 270.363V270.373Z" fill="#263238"/>
<path d="M396.14 277.35C394.143 276.966 392.163 276.507 390.203 275.973C392.28 275.852 394.347 276.331 396.14 277.35Z" fill="#263238"/>
<path d="M396.832 270.239C396.483 268.378 396.483 266.471 396.832 264.61C397.092 265.524 397.189 266.474 397.119 267.42C397.197 268.369 397.1 269.323 396.832 270.239Z" fill="#263238"/>
<path d="M404.569 282.176C404.254 281.02 404.11 279.826 404.143 278.63C404.007 277.443 404.041 276.244 404.242 275.066C404.687 277.41 404.797 279.803 404.569 282.176Z" fill="#263238"/>
<path d="M398.623 286.209C398.514 286.305 397.713 285.597 396.832 284.642C395.952 283.686 395.318 282.826 395.427 282.73C395.536 282.635 396.337 283.342 397.218 284.307C398.098 285.272 398.732 286.123 398.623 286.209Z" fill="#263238"/>
<path d="M406.142 291.714C405.208 292.021 404.229 292.176 403.243 292.173C402.261 292.338 401.257 292.338 400.275 292.173C401.202 291.855 402.18 291.7 403.164 291.714C404.148 291.536 405.158 291.536 406.142 291.714Z" fill="#263238"/>
<path d="M411.801 294.505C411.382 292.43 411.299 290.306 411.554 288.207C411.985 290.28 412.068 292.406 411.801 294.505Z" fill="#263238"/>
<path d="M417.381 304.97C416.194 305.189 414.976 305.189 413.789 304.97C412.583 304.924 411.398 304.655 410.297 304.176C411.488 304.172 412.677 304.274 413.849 304.482C415.04 304.531 416.223 304.695 417.381 304.97Z" fill="#263238"/>
<path d="M426.977 300.143C426.569 302.314 425.822 304.411 424.761 306.365C424.877 305.271 425.168 304.201 425.622 303.192C425.905 302.113 426.362 301.084 426.977 300.143Z" fill="#263238"/>
<path d="M433.893 291.695C431.836 291.487 429.829 290.947 427.957 290.099C430.011 290.319 432.016 290.858 433.893 291.695Z" fill="#263238"/>
<path d="M439.453 294.896C438.864 295.728 438.139 296.46 437.306 297.066C436.582 297.791 435.744 298.4 434.823 298.872C435.406 298.034 436.132 297.297 436.97 296.693C437.693 295.971 438.532 295.364 439.453 294.896Z" fill="#263238"/>
<path d="M441.679 286.993C441.132 286.048 440.795 285.003 440.69 283.925C440.406 282.87 440.359 281.769 440.551 280.695C440.866 281.721 441.082 282.774 441.194 283.839C441.458 284.873 441.62 285.929 441.679 286.993Z" fill="#263238"/>
<path d="M452.265 285.177C450.23 287.139 448.172 289.08 446.092 290.997C447.663 288.628 449.775 286.637 452.265 285.177Z" fill="#263238"/>
<path d="M453.314 281.517C452.178 281.362 451.074 281.039 450.039 280.561C448.941 280.249 447.9 279.775 446.952 279.156C448.084 279.315 449.185 279.637 450.217 280.112C451.316 280.429 452.359 280.903 453.314 281.517Z" fill="#263238"/>
<path d="M452.305 277.589C451.801 276.795 451.45 275.921 451.266 275.008C450.92 274.138 450.735 273.216 450.722 272.284C451.208 273.081 451.543 273.955 451.711 274.865C452.068 275.733 452.269 276.655 452.305 277.589Z" fill="#263238"/>
<path d="M396.921 305.123C396.802 305.209 395.932 304.262 395.061 303.02C394.434 302.314 393.945 301.505 393.617 300.631C394.361 301.219 394.991 301.931 395.477 302.733C396.095 303.445 396.583 304.253 396.921 305.123Z" fill="#263238"/>
<path d="M472.349 353.271C472.307 353.137 472.28 352.999 472.27 352.86C472.23 352.573 472.171 352.172 472.092 351.656C471.953 350.576 471.735 349.018 471.468 347.03C470.904 343.016 470.103 337.196 468.906 330.038C467.709 322.88 466.116 314.383 463.85 305.056C463.618 303.885 463.222 302.75 462.673 301.682C462.051 300.628 461.248 299.685 460.298 298.891C458.283 297.28 455.707 296.473 453.096 296.636C451.764 296.707 450.463 297.049 449.277 297.639C448.086 298.288 446.951 299.03 445.884 299.857L439.077 304.74C429.916 311.382 421.338 317.891 413.681 323.998C406.023 330.105 399.345 335.82 393.755 340.665C390.926 343.016 387.908 344.899 384.851 345.205C383.449 345.359 382.029 345.192 380.706 344.717C379.605 344.317 378.569 343.766 377.629 343.083C376.342 342.138 375.15 341.079 374.067 339.92L373.226 339.021C373.124 338.922 373.031 338.813 372.949 338.697C373.063 338.78 373.166 338.876 373.256 338.983L374.136 339.853C375.25 340.974 376.458 342.003 377.748 342.93C378.683 343.582 379.704 344.109 380.785 344.498C382.078 344.941 383.46 345.089 384.821 344.928C387.789 344.612 390.757 342.749 393.528 340.398C399.078 335.533 405.736 329.751 413.394 323.644C421.051 317.537 429.609 310.981 438.78 304.339L445.587 299.455C446.68 298.614 447.841 297.86 449.06 297.2C450.306 296.578 451.675 296.22 453.076 296.148C455.815 295.981 458.516 296.833 460.625 298.528C461.624 299.358 462.465 300.351 463.108 301.462C463.675 302.567 464.084 303.74 464.325 304.95C466.571 314.307 468.114 322.822 469.272 329.98C470.429 337.139 471.171 342.978 471.676 347.002C471.903 348.999 472.082 350.557 472.21 351.646C472.21 352.162 472.299 352.602 472.329 352.86C472.349 352.996 472.355 353.134 472.349 353.271Z" fill="#263238"/>
<path d="M483.904 352.736C483.584 352.831 483.251 352.883 482.915 352.889C482.272 352.956 481.342 353.032 480.194 353.109C477.889 353.261 474.713 353.424 471.201 353.567L462.208 353.94L459.477 354.036C459.149 354.073 458.817 354.073 458.488 354.036C458.808 353.934 459.141 353.876 459.477 353.864C460.12 353.787 461.05 353.701 462.198 353.606C464.503 353.424 467.679 353.242 471.191 353.089L480.194 352.774L482.925 352.717C483.251 352.684 483.58 352.69 483.904 352.736Z" fill="#263238"/>
<path d="M458.547 305.964C456.295 309.506 453.359 312.598 449.9 315.071C449.802 314.957 451.879 313.093 454.293 310.58C456.707 308.066 458.399 305.877 458.547 305.964Z" fill="#263238"/>
<path d="M459.507 308.869C458.173 309.852 456.764 310.737 455.292 311.516C453.909 312.444 452.453 313.269 450.939 313.982C452.163 312.859 453.534 311.896 455.015 311.115C456.406 310.182 457.916 309.427 459.507 308.869Z" fill="#263238"/>
<path d="M542.859 355.202C542.659 355.223 542.456 355.223 542.256 355.202L540.515 355.106L534.183 354.523L513.317 352.42C505.165 351.599 497.805 350.681 492.452 350.423C489.781 350.289 487.604 350.299 486.111 350.356L484.389 350.423C484.185 350.448 483.979 350.448 483.776 350.423C483.974 350.376 484.176 350.344 484.379 350.327C484.765 350.27 485.368 350.222 486.101 350.155C488.221 350.021 490.348 349.992 492.472 350.069C497.854 350.241 505.225 351.102 513.367 351.923L534.232 354.15L540.554 354.886L542.266 355.106C542.467 355.115 542.666 355.147 542.859 355.202Z" fill="#455A64"/>
<path d="M541.603 365.886C541.464 365.886 541.91 361.108 542.592 355.173C543.275 349.238 543.967 344.507 544.106 344.526C544.244 344.545 543.799 349.305 543.117 355.23C542.434 361.156 541.741 365.896 541.603 365.886Z" fill="#455A64"/>
</svg>
