<svg width="453" height="430" viewBox="0 0 453 430" fill="none" xmlns="http://www.w3.org/2000/svg">
<path d="M303.834 311.863C302.469 310.338 305.687 301.428 320.959 300.797C336.23 300.166 342.348 305.774 342.37 311.863C342.382 314.558 303.834 311.863 303.834 311.863Z" fill="#455A64"/>
<path d="M296.295 78.7538L279.329 184.563H434.271L452.942 77.6186L296.295 78.7538Z" fill="#F5F5F5"/>
<path d="M294.748 88.375C294.817 88.008 451.168 87.7787 451.168 87.7787L452.942 77.6186L296.295 78.7653L294.748 88.3979" fill="#E0E0E0"/>
<path d="M302.845 83.5128C302.847 83.8013 302.764 84.084 302.607 84.325C302.45 84.566 302.225 84.7545 301.961 84.8665C301.697 84.9784 301.407 85.0089 301.126 84.954C300.845 84.8991 300.587 84.7614 300.383 84.5581C300.18 84.3549 300.042 84.0955 299.985 83.8126C299.928 83.5298 299.956 83.2364 300.065 82.9696C300.174 82.7028 300.359 82.4747 300.597 82.3142C300.835 82.1536 301.114 82.0679 301.401 82.0679C301.59 82.0664 301.777 82.1026 301.952 82.1746C302.127 82.2465 302.287 82.3527 302.421 82.487C302.555 82.6214 302.662 82.7812 302.734 82.9572C302.807 83.1333 302.845 83.3221 302.845 83.5128Z" fill="#263238"/>
<path d="M309.895 83.5128C309.895 83.7986 309.811 84.078 309.653 84.3156C309.496 84.5532 309.272 84.7384 309.01 84.8477C308.748 84.9571 308.46 84.9857 308.182 84.93C307.904 84.8742 307.649 84.7366 307.449 84.5345C307.248 84.3324 307.112 84.075 307.057 83.7947C307.001 83.5144 307.03 83.2239 307.138 82.9599C307.247 82.6959 307.43 82.4702 307.666 82.3114C307.902 82.1527 308.179 82.0679 308.462 82.0679C308.842 82.0679 309.206 82.2202 309.475 82.4911C309.744 82.7621 309.895 83.1296 309.895 83.5128Z" fill="#263238"/>
<path d="M316.956 83.5128C316.958 83.8013 316.876 84.084 316.718 84.325C316.561 84.566 316.336 84.7545 316.073 84.8665C315.809 84.9784 315.518 85.0089 315.237 84.954C314.956 84.8991 314.698 84.7614 314.495 84.5581C314.292 84.3549 314.153 84.0955 314.096 83.8126C314.04 83.5298 314.068 83.2364 314.177 82.9696C314.286 82.7028 314.471 82.4747 314.708 82.3142C314.946 82.1536 315.226 82.0679 315.512 82.0679C315.701 82.0664 315.889 82.1026 316.064 82.1746C316.239 82.2465 316.398 82.3527 316.532 82.487C316.667 82.6214 316.773 82.7812 316.846 82.9572C316.919 83.1333 316.956 83.3221 316.956 83.5128Z" fill="#263238"/>
<path d="M334.456 135.907L315.068 158.521C311.408 156.016 308.4 152.658 306.299 148.731C304.199 144.805 303.069 140.426 303.004 135.965C303.004 120.243 317.206 107.296 334.456 107.296C351.706 107.296 365.908 120.231 365.908 135.965L334.456 135.907Z" fill="#EE4248"/>
<path d="M336.946 139.497C336.852 139.657 336.741 139.807 336.617 139.944L335.605 141.159L331.761 145.746C328.418 149.691 323.665 155.264 317.968 161.973V161.606C322.263 164.588 327.226 166.448 332.409 167.018C338.261 167.699 344.188 166.796 349.58 164.404C354.726 162.15 359.17 158.531 362.44 153.934C363.914 151.79 365.095 149.457 365.954 146.996C366.703 144.698 367.158 142.313 367.307 139.898L367.557 140.162L345.384 139.783L339.152 139.646L337.504 139.588C337.311 139.607 337.116 139.607 336.924 139.588C337.105 139.571 337.288 139.571 337.469 139.588H339.095H345.293L367.557 139.737H367.83V140.013C367.701 142.481 367.25 144.922 366.488 147.272C365.625 149.785 364.427 152.169 362.929 154.358C359.599 159.078 355.048 162.787 349.773 165.08C344.281 167.504 338.25 168.414 332.296 167.718C327.024 167.114 321.983 165.199 317.627 162.145L317.4 161.984L317.581 161.766L331.613 145.632L335.536 141.159L336.582 140.013C336.689 139.83 336.81 139.658 336.946 139.497Z" fill="#263238"/>
<path d="M347.828 120.656C348.802 120.656 349.591 119.86 349.591 118.878C349.591 117.897 348.802 117.101 347.828 117.101C346.855 117.101 346.066 117.897 346.066 118.878C346.066 119.86 346.855 120.656 347.828 120.656Z" fill="#263238"/>
<path d="M384.602 105.874C384.053 105.96 383.498 105.998 382.942 105.989L378.394 106.081C374.584 106.081 369.297 106.172 363.509 106.172H360.735L360.939 106.092C357.289 109.762 354.037 112.973 351.683 115.266L348.897 117.949C348.579 118.298 348.22 118.606 347.828 118.867C348.104 118.485 348.413 118.128 348.749 117.8C349.443 117.055 350.341 116.115 351.41 114.991C353.684 112.617 356.891 109.337 360.507 105.645L360.587 105.565H363.577C369.388 105.565 374.653 105.565 378.462 105.645L383.01 105.748C383.544 105.739 384.077 105.782 384.602 105.874Z" fill="#263238"/>
<path d="M424.537 128.213C424.545 128.008 424.571 127.805 424.617 127.605C424.685 127.192 424.776 126.63 424.901 125.908L426.038 119.497L430.143 96.4939L430.382 96.7806L386.342 96.8379L386.626 96.5971V96.7118V96.8494V97.1131L386.524 97.6406L386.331 98.7071L385.944 100.817C385.682 102.216 385.432 103.604 385.171 104.98C384.67 107.732 384.174 110.438 383.681 113.099C382.692 118.397 381.748 123.419 380.873 128.247L380.6 127.926L412.325 128.052L421.422 128.132H423.844H424.469H424.696H424.503H423.9H421.524L412.518 128.201L380.679 128.327H380.361L380.418 128.006C381.293 123.224 382.214 118.144 383.192 112.835C383.67 110.186 384.17 107.48 384.67 104.727C384.932 103.34 385.182 101.952 385.444 100.553C385.569 99.8538 385.694 99.1543 385.83 98.4434L386.024 97.3884L386.115 96.8609L386.171 96.5856V96.4595V96.3563L386.467 96.104L430.507 96.1613H430.666L430.609 96.448C428.79 106.046 427.289 113.97 426.243 119.532C425.708 122.25 425.299 124.383 425.003 125.885L424.674 127.525C424.583 128.041 424.537 128.224 424.537 128.213Z" fill="#263238"/>
<path d="M350.592 156.411C351.565 156.411 352.354 155.615 352.354 154.634C352.354 153.652 351.565 152.856 350.592 152.856C349.618 152.856 348.829 153.652 348.829 154.634C348.829 155.615 349.618 156.411 350.592 156.411Z" fill="#263238"/>
<path d="M382.59 154.634C382.59 154.806 375.426 154.932 366.591 154.932C357.755 154.932 350.591 154.806 350.591 154.634C350.591 154.462 357.755 154.335 366.591 154.335C375.426 154.335 382.59 154.473 382.59 154.634Z" fill="#263238"/>
<path d="M424.537 168.486C424.551 168.339 424.578 168.193 424.617 168.05C424.685 167.741 424.776 167.328 424.901 166.812C425.163 165.665 425.538 164.14 426.038 162.145C427.028 158.085 428.438 152.294 430.177 145.173L430.393 145.448L384.977 145.517L385.262 145.299V145.368V145.46V145.655L385.159 146.044L384.966 146.801L384.591 148.338C384.329 149.347 384.079 150.356 383.829 151.365L382.214 157.374C381.236 161.262 380.293 165.023 379.383 168.612L379.121 168.268L411.699 168.394L421.115 168.463H423.639H424.298H424.537H424.333H423.696H421.228L411.859 168.532L379.121 168.658H378.758L378.848 168.303C379.747 164.713 380.679 160.941 381.646 157.053C382.131 155.104 382.627 153.128 383.135 151.125L383.886 148.097L384.272 146.572L384.466 145.804L384.557 145.414V145.23V145.127V145.058L384.841 144.829L430.257 144.909H430.666L430.598 145.184C428.756 152.34 427.266 158.154 426.22 162.225C425.697 164.186 425.288 165.734 425.003 166.812C424.867 167.305 424.765 167.695 424.685 167.959C424.605 168.222 424.537 168.498 424.537 168.486Z" fill="#263238"/>
<path d="M420.955 106.276C420.955 106.448 414.212 106.574 405.889 106.574C397.565 106.574 390.822 106.448 390.822 106.276C390.822 106.104 397.565 105.977 405.889 105.977C414.212 105.977 420.955 106.115 420.955 106.276Z" fill="#263238"/>
<path d="M420.603 111.252C420.603 111.424 413.78 111.551 405.457 111.551C397.133 111.551 390.299 111.424 390.299 111.252C390.299 111.08 397.122 110.954 405.457 110.954C413.792 110.954 420.603 111.092 420.603 111.252Z" fill="#263238"/>
<path d="M419.727 116.092C419.727 116.252 413.178 116.39 405.104 116.39C397.031 116.39 390.47 116.252 390.47 116.092C390.47 115.931 397.019 115.794 405.104 115.794C413.189 115.794 419.727 115.885 419.727 116.092Z" fill="#263238"/>
<path d="M420.25 154.083C420.25 154.244 413.826 154.381 405.889 154.381C397.952 154.381 391.527 154.244 391.527 154.083C391.527 153.923 397.963 153.785 405.889 153.785C413.814 153.785 420.25 153.934 420.25 154.083Z" fill="#263238"/>
<path d="M418.488 159.587C418.488 159.759 413.007 159.886 406.241 159.886C399.476 159.886 393.995 159.759 393.995 159.587C393.995 159.415 399.476 159.289 406.241 159.289C413.007 159.289 418.488 159.427 418.488 159.587Z" fill="#263238"/>
<path d="M235.471 274.8C234.925 278.023 219.756 311.874 229.547 311.874H278.761C278.761 311.874 273.678 307.058 289.063 274.8H235.471Z" fill="#455A64"/>
<path d="M203.632 161.812L183.517 280.362H353.184L373.993 157.65L203.632 161.812Z" fill="#455A64"/>
<path d="M209.398 167.592L192.443 273.413H347.374L366.045 166.468L209.398 167.592Z" fill="#FAFAFA"/>
<path d="M373.993 157.65L377.2 159.828L355.595 283.584H187.997L183.517 280.362H353.184L373.993 157.65Z" fill="#263238"/>
<path d="M207.862 177.224C207.919 176.846 364.271 176.628 364.271 176.628L366.045 166.468L209.398 167.615L207.862 177.247" fill="#EBEBEB"/>
<path d="M322.96 264.021V263.723L323.096 262.84C323.24 261.999 323.434 260.852 323.676 259.4C324.211 256.315 324.961 251.889 325.894 246.396C327.827 235.272 330.522 219.791 333.58 202.223V201.971H346.384L346.327 202.326C341.586 228.231 337.435 250.994 335.036 264.078V264.216H334.911L325.996 264.124H323.722H323.165H323.779H326.132L334.945 264.032L334.786 264.159L345.793 202.361L346.089 202.705H333.899L334.183 202.464C331.033 219.929 328.27 235.307 326.223 246.373C325.223 251.877 324.404 256.315 323.835 259.411C323.551 260.913 323.335 262.094 323.176 262.943C323.096 263.322 323.039 263.631 322.994 263.86C322.985 263.914 322.973 263.968 322.96 264.021Z" fill="#263238"/>
<path d="M303.311 264.021C303.326 263.742 303.368 263.466 303.436 263.195C303.538 262.588 303.686 261.773 303.868 260.741C304.277 258.528 304.846 255.398 305.562 251.567C307.052 243.621 309.133 232.566 311.509 219.929V219.688H324.313L324.245 220.044C320.652 238.013 317.422 253.987 315.421 264.113V264.262H315.273L306.37 264.159H304.095C303.842 264.176 303.587 264.176 303.334 264.159H304.175H306.54L315.319 264.055L315.137 264.204C317.115 254.067 320.231 238.082 323.733 220.089L324.017 220.445H311.759L312.044 220.216C309.576 232.738 307.416 243.701 305.858 251.579C305.073 255.489 304.448 258.631 303.993 260.845L303.481 263.356C303.481 263.62 303.368 263.838 303.334 264.01L303.311 264.021Z" fill="#263238"/>
<path d="M283.582 264.021C283.572 263.899 283.572 263.776 283.582 263.654L283.764 262.507C283.935 261.498 284.173 260.053 284.492 258.196C285.151 254.4 286.095 248.93 287.278 242.141C289.688 228.38 293.043 209.333 296.841 187.74V187.499H309.644L309.588 187.843C303.652 220.628 298.41 249.194 295.635 264.021V264.147H295.51L286.561 264.055H284.287H283.537H284.344H286.675L295.522 263.975L295.385 264.09C297.978 249.182 303.095 220.64 309.03 187.866L309.326 188.222H297.17L297.455 187.969C293.577 209.448 290.143 228.438 287.664 242.095C286.413 248.907 285.39 254.4 284.708 258.207L283.889 262.576C283.798 263.058 283.73 263.436 283.673 263.723L283.582 264.021Z" fill="#263238"/>
<path d="M263.887 264.021C263.896 263.828 263.919 263.637 263.956 263.448C264.035 263 264.126 262.439 264.24 261.728C264.501 260.145 264.877 257.943 265.377 255.203C266.366 249.526 267.742 241.648 269.323 232.543V232.302H282.115L282.047 232.658C279.693 245.042 277.578 256.189 276.077 264.067V264.239H275.918L267.049 264.124L264.649 264.021C264.388 264.037 264.126 264.037 263.865 264.021H264.729H267.128L275.861 263.906L275.656 264.067C277.112 256.189 279.17 245.02 281.444 232.623L281.74 232.979H269.562L269.834 232.749C268.152 241.751 266.707 249.538 265.65 255.145C265.127 257.897 264.695 260.122 264.388 261.716C264.24 262.439 264.126 263.035 264.035 263.482C263.996 263.664 263.947 263.844 263.887 264.021Z" fill="#263238"/>
<path d="M244.181 264.021C244.181 264.021 244.181 263.941 244.181 263.78C244.181 263.62 244.181 263.333 244.284 263.035C244.398 262.335 244.545 261.372 244.739 260.134C245.159 257.553 245.751 253.861 246.49 249.274C248.036 239.94 250.174 226.958 252.619 212.177V211.936H265.423L265.354 212.292C261.602 233.655 258.293 252.542 256.258 264.055V264.205H256.121L247.229 264.101H244.898C244.644 264.118 244.39 264.118 244.136 264.101H244.352H244.966H247.331L256.121 264.01L255.951 264.147L264.797 212.337L265.093 212.693H252.96L253.244 212.452C250.708 227.13 248.48 239.974 246.876 249.274C246.058 253.861 245.41 257.588 244.943 260.191C244.716 261.441 244.545 262.484 244.409 263.138L244.261 263.918L244.181 264.021Z" fill="#263238"/>
<path d="M224.51 264.021C224.495 263.911 224.495 263.799 224.51 263.688C224.51 263.436 224.601 263.104 224.669 262.679C224.828 261.75 225.044 260.386 225.328 258.735C225.908 255.294 226.761 250.26 227.807 244.045C229.968 231.488 232.981 214.012 236.392 194.23V193.99H249.196L249.139 194.345C243.84 224.069 239.155 250.054 236.574 264.055V264.182H236.449L227.523 264.09H225.249H224.703H225.306H227.637L236.472 263.998L236.324 264.124C238.735 250.088 243.306 224.08 248.605 194.368L248.889 194.712H236.711L236.995 194.471C233.504 214.149 230.411 231.522 228.194 244.01C227.057 250.249 226.158 255.26 225.522 258.746C225.215 260.466 224.964 261.796 224.794 262.748C224.703 263.184 224.646 263.528 224.589 263.792C224.532 264.055 224.51 264.021 224.51 264.021Z" fill="#263238"/>
<path d="M215.947 172.362C215.949 172.651 215.867 172.933 215.709 173.174C215.552 173.415 215.327 173.604 215.064 173.716C214.8 173.828 214.509 173.858 214.228 173.803C213.948 173.748 213.689 173.611 213.486 173.407C213.283 173.204 213.144 172.945 213.088 172.662C213.031 172.379 213.059 172.086 213.168 171.819C213.277 171.552 213.462 171.324 213.7 171.164C213.937 171.003 214.217 170.917 214.503 170.917C214.884 170.917 215.25 171.069 215.52 171.34C215.791 171.61 215.944 171.978 215.947 172.362Z" fill="#263238"/>
<path d="M221.564 173.807C222.356 173.807 222.997 173.16 222.997 172.362C222.997 171.564 222.356 170.917 221.564 170.917C220.773 170.917 220.132 171.564 220.132 172.362C220.132 173.16 220.773 173.807 221.564 173.807Z" fill="#263238"/>
<path d="M230.059 172.362C230.061 172.651 229.978 172.934 229.82 173.176C229.662 173.417 229.437 173.605 229.172 173.717C228.908 173.829 228.617 173.858 228.336 173.802C228.054 173.747 227.796 173.608 227.593 173.403C227.391 173.199 227.253 172.938 227.198 172.655C227.142 172.371 227.172 172.078 227.283 171.811C227.393 171.544 227.58 171.317 227.819 171.158C228.059 170.999 228.339 170.915 228.626 170.917C229.005 170.92 229.368 171.073 229.636 171.344C229.904 171.614 230.056 171.98 230.059 172.362Z" fill="#263238"/>
<path d="M204.815 264.021C204.815 264.021 204.815 263.723 204.94 263.138C205.065 262.553 205.179 261.636 205.361 260.535C205.759 258.241 206.316 254.882 207.01 250.765C208.465 242.348 210.478 230.651 212.786 217.303V217.062H225.59L225.522 217.418C222.008 236.522 218.881 253.471 216.936 264.067V264.216H216.8L207.896 264.113H205.622C205.365 264.129 205.107 264.129 204.849 264.113H205.076H205.69H208.056L216.845 264.01L216.664 264.159L225.021 217.475L225.306 217.819H213.07L213.355 217.578C210.955 230.823 208.806 242.428 207.351 250.765C206.577 254.904 205.963 258.241 205.52 260.581C205.315 261.728 205.145 262.599 205.02 263.241L204.883 263.941C204.862 263.969 204.839 263.995 204.815 264.021Z" fill="#263238"/>
<path d="M337.731 217.36H272.825L276.532 195.389H341.893L337.731 217.36Z" fill="#EE4248"/>
<path d="M272.825 217.36L271.563 225.032C271.563 225.032 280.091 217.062 279.955 217.062H272.882" fill="#EE4248"/>
<path d="M332.102 203.026C332.102 203.187 321.288 203.324 307.962 203.324C294.635 203.324 283.81 203.187 283.81 203.026C283.81 202.865 294.623 202.728 307.962 202.728C321.3 202.728 332.102 202.865 332.102 203.026Z" fill="#FAFAFA"/>
<path d="M331.465 208.335C331.465 208.496 320.652 208.634 307.325 208.634C293.998 208.634 283.173 208.496 283.173 208.335C283.173 208.175 293.987 208.037 307.325 208.037C320.663 208.037 331.465 208.163 331.465 208.335Z" fill="#FAFAFA"/>
<path d="M437.625 319.466H252.71V428.28H437.625V319.466Z" fill="#263238"/>
<path d="M336.946 319.466H252.71V428.28H336.946V319.466Z" fill="#455A64"/>
<path d="M328.327 356.425C328.327 356.425 328.327 356.23 328.327 355.875C328.327 355.519 328.327 354.969 328.327 354.292C328.327 352.882 328.327 350.852 328.27 348.249C328.27 343.02 328.213 335.486 328.156 326.197L328.372 326.415L260.612 326.495C260.351 326.771 260.965 326.14 260.908 326.209V334.075C260.908 336.678 260.908 339.247 260.908 341.77C260.908 346.827 260.908 351.735 260.908 356.425L260.635 356.15L309.201 356.276L323.29 356.356H327.065H328.054H328.395C328.293 356.367 328.19 356.367 328.088 356.356H327.133H323.415L309.394 356.437L260.635 356.574H260.351V356.288C260.351 351.597 260.351 346.689 260.351 341.632V326.209C260.283 326.209 260.908 325.635 260.647 325.899L328.327 325.945H328.543V326.151C328.543 335.497 328.452 343.066 328.429 348.341C328.429 350.921 328.429 352.928 328.372 354.327C328.372 354.98 328.372 355.473 328.372 355.875C328.371 356.059 328.355 356.243 328.327 356.425Z" fill="#263238"/>
<path d="M297.364 341.311C297.364 341.311 297.296 341.059 297.159 340.635C296.969 340.048 296.599 339.538 296.102 339.178C295.743 338.916 295.326 338.749 294.887 338.691C294.448 338.633 294.002 338.686 293.589 338.846C293.089 339.034 292.658 339.371 292.354 339.813C292.05 340.254 291.887 340.779 291.887 341.317C291.887 341.855 292.05 342.38 292.354 342.821C292.658 343.263 293.089 343.6 293.589 343.788C294.003 343.942 294.448 343.992 294.886 343.934C295.323 343.876 295.741 343.712 296.102 343.456C296.599 343.096 296.969 342.586 297.159 341.999C297.296 341.575 297.307 341.311 297.364 341.311C297.421 341.311 297.455 341.575 297.364 342.057C297.232 342.739 296.866 343.352 296.329 343.788C295.923 344.121 295.439 344.343 294.923 344.434C294.408 344.524 293.878 344.479 293.384 344.304C292.77 344.087 292.238 343.683 291.861 343.148C291.485 342.613 291.282 341.973 291.282 341.317C291.282 340.661 291.485 340.021 291.861 339.486C292.238 338.95 292.77 338.546 293.384 338.33C293.877 338.156 294.406 338.111 294.921 338.2C295.436 338.288 295.92 338.506 296.329 338.834C296.867 339.274 297.234 339.891 297.364 340.577C297.455 341.059 297.398 341.323 297.364 341.311Z" fill="#263238"/>
<path d="M328.327 389.704C328.327 389.704 328.327 389.509 328.327 389.153C328.327 388.798 328.327 388.236 328.327 387.559C328.327 386.149 328.327 384.119 328.27 381.527C328.27 376.287 328.213 368.764 328.157 359.476L328.373 359.693L260.613 359.774L260.908 359.476V367.331C260.908 369.934 260.908 372.491 260.908 375.025C260.908 380.082 260.908 384.979 260.908 389.681L260.635 389.394L309.201 389.532L323.29 389.612H327.065H328.054C328.168 389.603 328.282 389.603 328.395 389.612H328.088H327.133H323.415L309.394 389.692L260.635 389.83H260.351V389.543C260.351 384.841 260.351 379.945 260.351 374.888V359.499L260.647 359.2L328.407 359.281H328.623V359.499C328.623 368.844 328.532 376.413 328.509 381.676C328.509 384.257 328.509 386.263 328.452 387.674C328.452 388.328 328.452 388.821 328.452 389.211C328.421 389.377 328.379 389.542 328.327 389.704Z" fill="#263238"/>
<path d="M297.364 374.59C297.364 374.59 297.296 374.326 297.159 373.902C296.969 373.315 296.599 372.805 296.102 372.445C295.741 372.189 295.323 372.025 294.886 371.967C294.448 371.909 294.003 371.959 293.589 372.113C293.089 372.301 292.658 372.638 292.354 373.08C292.05 373.521 291.887 374.046 291.887 374.584C291.887 375.122 292.05 375.646 292.354 376.088C292.658 376.53 293.089 376.867 293.589 377.055C294.001 377.213 294.447 377.267 294.885 377.211C295.323 377.155 295.741 376.991 296.102 376.734C296.602 376.372 296.973 375.858 297.159 375.266C297.296 374.842 297.307 374.59 297.364 374.59C297.421 374.59 297.455 374.853 297.364 375.323C297.236 376.01 296.869 376.628 296.329 377.067C295.922 377.398 295.437 377.618 294.922 377.706C294.406 377.794 293.877 377.748 293.384 377.571C292.77 377.354 292.238 376.95 291.861 376.415C291.485 375.88 291.282 375.24 291.282 374.584C291.282 373.928 291.485 373.288 291.861 372.753C292.238 372.217 292.77 371.813 293.384 371.597C293.878 371.421 294.408 371.377 294.923 371.467C295.439 371.557 295.923 371.78 296.329 372.113C296.869 372.551 297.236 373.169 297.364 373.856C297.455 374.326 297.398 374.59 297.364 374.59Z" fill="#263238"/>
<path d="M328.327 422.97C328.327 422.97 328.327 422.776 328.327 422.42C328.327 422.065 328.327 421.514 328.327 420.838C328.327 419.427 328.327 417.397 328.27 414.794C328.27 409.565 328.213 402.031 328.156 392.742L328.372 392.96L260.612 393.041C260.351 393.316 260.965 392.685 260.908 392.754V400.621C260.908 403.224 260.908 405.792 260.908 408.315C260.908 413.372 260.908 418.28 260.908 422.97L260.635 422.695L309.201 422.821L323.29 422.902H327.065H328.054H328.395C328.293 422.913 328.19 422.913 328.088 422.902H327.133H323.415L309.394 422.97L260.635 423.108H260.351V422.821C260.351 418.131 260.351 413.223 260.351 408.166V392.754C260.283 392.811 260.908 392.181 260.647 392.444L328.407 392.536H328.623V392.742C328.623 402.088 328.532 409.668 328.509 414.932C328.509 417.512 328.509 419.519 328.452 420.918C328.452 421.583 328.452 422.065 328.452 422.466C328.422 422.637 328.38 422.805 328.327 422.97Z" fill="#263238"/>
<path d="M297.364 407.856C297.364 407.856 297.296 407.604 297.159 407.18C296.969 406.593 296.599 406.083 296.102 405.724C295.742 405.465 295.324 405.299 294.886 405.241C294.448 405.183 294.002 405.234 293.589 405.391C293.089 405.579 292.658 405.916 292.354 406.358C292.05 406.8 291.887 407.325 291.887 407.862C291.887 408.4 292.05 408.925 292.354 409.366C292.658 409.808 293.089 410.146 293.589 410.333C294.002 410.49 294.448 410.542 294.886 410.484C295.324 410.426 295.742 410.26 296.102 410.001C296.599 409.641 296.969 409.131 297.159 408.545C297.296 408.12 297.307 407.856 297.364 407.856C297.421 407.856 297.455 408.12 297.364 408.602C297.231 409.287 296.865 409.903 296.329 410.345C295.92 410.673 295.436 410.891 294.921 410.98C294.406 411.068 293.877 411.023 293.384 410.849C292.77 410.633 292.238 410.229 291.861 409.694C291.485 409.158 291.282 408.518 291.282 407.862C291.282 407.206 291.485 406.566 291.861 406.031C292.238 405.496 292.77 405.092 293.384 404.875C293.877 404.701 294.406 404.657 294.921 404.745C295.436 404.833 295.92 405.051 296.329 405.38C296.867 405.819 297.234 406.437 297.364 407.123C297.455 407.604 297.398 407.868 297.364 407.856Z" fill="#263238"/>
<path d="M161.514 319.466H5.96979V428.28H161.514V319.466Z" fill="#263238"/>
<path d="M444.323 311.874H0V322.218H444.323V311.874Z" fill="#263238"/>
<path d="M19.7515 322.218H5.96979V428.28H19.7515V322.218Z" fill="#455A64"/>
<path d="M178.718 148.2C178.627 147.765 178.562 147.325 178.525 146.882C178.36 145.703 177.974 144.567 177.388 143.533C177.008 142.841 176.43 142.281 175.728 141.928C175.332 141.756 174.895 141.707 174.472 141.787C174.049 141.867 173.659 142.071 173.351 142.375C172.034 144.024 171.316 146.077 171.316 148.195C171.316 150.312 172.034 152.365 173.351 154.014C173.658 154.32 174.047 154.527 174.47 154.608C174.894 154.69 175.331 154.643 175.728 154.473C176.428 154.112 177.006 153.549 177.388 152.856C177.974 151.823 178.36 150.686 178.525 149.508C178.562 149.068 178.626 148.631 178.718 148.2C178.792 148.644 178.792 149.098 178.718 149.542C178.642 150.777 178.305 151.981 177.729 153.074C177.318 153.862 176.68 154.506 175.898 154.92C175.435 155.144 174.916 155.22 174.409 155.138C173.879 155.033 173.386 154.793 172.976 154.439C171.508 152.697 170.702 150.486 170.702 148.2C170.702 145.915 171.508 143.704 172.976 141.962C173.382 141.6 173.877 141.355 174.409 141.251C174.916 141.175 175.434 141.251 175.898 141.469C176.68 141.884 177.318 142.527 177.729 143.315C178.307 144.411 178.644 145.62 178.718 146.859C178.791 147.303 178.791 147.756 178.718 148.2Z" fill="#263238"/>
<path d="M129.63 125.782L126.218 194.494L155.487 197.269L157.102 180.584C157.102 180.584 167.336 183.153 170.52 173.555C172.51 167.42 174.284 119.383 174.284 119.383L129.63 125.782Z" fill="#FFBE9D"/>
<path d="M180.504 126.47C178.013 132.444 168.621 137.57 168.621 137.57L167.086 152.787C165.689 152.69 164.287 152.69 162.89 152.787C163.64 145.643 154.532 147.054 153.6 151.904C152.713 156.583 158 159.714 158 159.714C154.35 165.356 152.872 168.337 147.687 173.624C142.092 179.357 139.079 179.816 133.291 179.644L126.912 179.346C126.912 179.346 124.638 173.853 122.989 160.883C122.182 154.645 117.304 146.469 118.725 136.32C122.637 107.503 154.259 112.617 154.259 112.617C166.131 103.306 186.371 112.422 180.504 126.47Z" fill="#263238"/>
<path d="M178.718 148.281C176.56 148.7 174.367 148.915 172.169 148.923C169.982 149.118 167.783 149.118 165.596 148.923C167.752 148.51 169.941 148.299 172.135 148.292C174.325 148.096 176.528 148.092 178.718 148.281Z" fill="#263238"/>
<path d="M271.961 229L261.329 235.639L257.429 244.813V236.786C257.429 236.786 260.317 233.346 262.682 230.834C265.047 228.323 263.353 226.58 262.682 225.72C262.011 224.86 251.834 236.786 251.834 236.786V243.666C247.092 237.784 244.898 239.802 244.17 240.868C243.442 241.935 251.834 249.916 251.834 249.916V252.347L210.137 274.961L199.164 247.439L176.751 259.308L190.135 291.978C191.058 294.239 192.452 296.272 194.223 297.941C195.994 299.61 198.1 300.875 200.398 301.651C202.697 302.426 205.134 302.694 207.544 302.436C209.954 302.178 212.281 301.4 214.367 300.155L263.433 270.901L266.696 265.409C267.829 263.516 268.496 261.376 268.641 259.17L270.335 234.458C273.314 232.577 271.961 229 271.961 229Z" fill="#FFBE9D"/>
<path d="M210.341 274.995C209.351 278.865 207.971 282.623 206.225 286.21C207.229 282.345 208.608 278.589 210.341 274.995Z" fill="#EB996E"/>
<path d="M270.335 234.458C269.707 234.784 269.061 235.075 268.402 235.33C267.649 235.689 266.978 236.2 266.428 236.831C265.879 237.462 265.463 238.2 265.207 238.999C264.357 241.308 263.322 243.544 262.114 245.685C262.78 243.327 263.632 241.026 264.661 238.804C264.993 237.866 265.52 237.01 266.207 236.293C266.796 235.741 267.478 235.298 268.22 234.986C268.876 234.649 269.599 234.469 270.335 234.458Z" fill="#EB996E"/>
<path d="M270.176 238.368C269.991 238.393 269.815 238.46 269.659 238.563C269.504 238.666 269.373 238.804 269.277 238.965C268.948 239.607 268.527 240.616 268.14 241.694C267.713 243.058 267.212 244.398 266.639 245.708C266.641 244.244 266.963 242.799 267.583 241.476C267.95 240.511 268.419 239.588 268.982 238.724C269.085 238.58 269.217 238.461 269.37 238.374C269.523 238.286 269.693 238.234 269.869 238.219C270.085 238.219 270.187 238.334 270.176 238.368Z" fill="#EB996E"/>
<path d="M170.054 255.122L174.818 271.395L205.054 257.634C203.917 254.193 198.959 239.045 189.396 214.963C186.777 208.361 182.518 202.548 177.027 198.086C171.537 193.623 165 190.661 158.046 189.483C148.153 187.82 137.385 186.524 129.095 186.628C120.866 186.705 112.911 189.628 106.562 194.908C100.212 200.189 95.8516 207.507 94.209 215.64C91.6505 228.426 96.1307 236.878 93.2425 264.858L92.3214 335.233L173.056 338.226L170.054 255.122Z" fill="#EE4248"/>
<path d="M96.9949 264.113C96.9949 264.113 85.7717 264.778 81.3597 256.212C81.3597 256.212 93.4471 211.145 97.6658 205.835L96.9949 264.113Z" fill="#EE4248"/>
<path d="M190.92 219.505C190.631 219.73 190.308 219.908 189.964 220.032C188.975 220.394 187.935 220.592 186.883 220.617C185.23 220.609 183.584 220.397 181.982 219.986C180.117 219.562 178.036 218.931 175.705 218.541C174.49 218.393 173.267 218.328 172.044 218.346C170.72 218.452 169.408 218.671 168.121 219C165.266 219.782 162.524 220.939 159.968 222.44C157.204 223.954 154.396 225.743 151.405 227.509C148.337 229.429 145.049 230.969 141.615 232.096C138.086 233.199 134.317 233.258 130.755 232.268C127.525 231.214 124.515 229.569 121.875 227.417C119.339 225.433 117.133 223.346 115.052 221.443C113.154 219.658 111.141 218.003 109.025 216.489C106.014 214.219 102.503 212.716 98.7915 212.108C97.4205 212.03 96.0462 212.03 94.6752 212.108C95.0105 211.971 95.3622 211.878 95.7213 211.833C96.7513 211.668 97.7962 211.618 98.837 211.684C102.67 212.133 106.326 213.562 109.458 215.835C111.642 217.322 113.717 218.966 115.666 220.755C117.781 222.635 120.01 224.676 122.489 226.58C125.037 228.616 127.931 230.17 131.028 231.167C134.389 232.08 137.938 232.013 141.262 230.972C144.602 229.871 147.804 228.382 150.803 226.534C153.77 224.803 156.602 223.014 159.422 221.5C162.074 219.98 164.915 218.823 167.87 218.06C169.222 217.734 170.6 217.526 171.987 217.44C173.269 217.454 174.549 217.554 175.819 217.739C178.23 218.197 180.288 218.885 182.118 219.367C183.663 219.816 185.254 220.085 186.86 220.17C188.239 220.162 189.609 219.938 190.92 219.505Z" fill="#263238"/>
<path d="M170.588 275.66C169.047 274.734 167.345 274.112 165.574 273.826C163.644 273.596 161.69 273.704 159.797 274.147C157.637 274.582 155.306 275.374 152.747 276.016C148.357 277.154 143.76 277.217 139.341 276.199C135.929 275.397 134.099 274.307 134.155 274.193C134.212 274.078 136.191 274.8 139.511 275.339C143.817 276.078 148.228 275.903 152.463 274.823C154.953 274.193 157.33 273.424 159.592 273.023C161.609 272.612 163.685 272.588 165.71 272.954C167.081 273.2 168.384 273.74 169.531 274.537C170.327 275.167 170.645 275.615 170.588 275.66Z" fill="#263238"/>
<path d="M171.407 317.677C171.407 317.677 171.1 318.193 170.338 318.915C169.238 319.93 168.006 320.791 166.677 321.473C164.682 322.517 162.476 323.082 160.229 323.124C157.487 323.048 154.784 322.441 152.269 321.335C149.62 320.292 147.198 319.122 144.912 318.468C142.892 317.846 140.777 317.597 138.67 317.734C137.262 317.82 135.889 318.211 134.644 318.881C133.757 319.374 133.348 319.775 133.269 319.695C133.189 319.615 133.541 319.133 134.406 318.548C135.638 317.648 137.079 317.079 138.59 316.897C140.808 316.636 143.056 316.811 145.208 317.413C147.76 318.213 150.265 319.155 152.713 320.234C155.084 321.281 157.622 321.89 160.206 322.035C162.305 322.043 164.38 321.594 166.29 320.716C169.644 319.191 171.293 317.505 171.407 317.677Z" fill="#263238"/>
<g opacity="0.3">
<path opacity="0.3" d="M83.85 264.904C94.4251 267.083 105.284 264.904 116.053 264.239C122.591 263.849 129.834 263.092 134.997 267.186C139.09 270.397 140.682 275.798 141.922 280.89C146.47 300.315 147.255 317.665 148.267 337.584L95.9602 336.438L83.85 264.904Z" fill="black"/>
</g>
<path opacity="0.3" d="M97.6658 228.334L99.9286 261.223H93.0378L97.6658 228.334Z" fill="black"/>
<path d="M112.357 335.188L216.175 338.892C224.276 339.179 231.943 342.66 237.526 348.587C243.11 354.514 246.165 362.413 246.035 370.587L245.125 430H207.055L204.599 378.775L112.357 376.321V335.188Z" fill="#263238"/>
<path d="M147.175 389.509H136.964V427.202H147.175V389.509Z" fill="#455A64"/>
<path d="M51.2834 269.755V360.576C51.2864 366.295 53.5412 371.779 57.5521 375.821C61.5629 379.864 67.0016 382.135 72.6723 382.135H132.643V269.755C132.64 267.205 131.634 264.761 129.845 262.959C128.056 261.157 125.631 260.145 123.103 260.145H60.8123C58.2851 260.145 55.8614 261.157 54.0743 262.96C52.2873 264.762 51.2834 267.206 51.2834 269.755Z" fill="#455A64"/>
<path d="M213.355 389.509H67.3051C67.3232 385.263 69.0083 381.197 71.9919 378.201C74.9754 375.205 79.0142 373.523 83.2246 373.523H197.56C201.764 373.523 205.796 375.207 208.769 378.205C211.741 381.203 213.411 385.269 213.411 389.509H213.355Z" fill="#455A64"/>
<path d="M132.643 371.402C132.709 372.299 132.633 373.201 132.416 374.074C131.926 376.118 130.859 377.976 129.343 379.421C127.827 380.866 125.928 381.837 123.876 382.215C122.948 382.367 122.008 382.433 121.067 382.41H118.122H105H81.1209L73.9003 382.319H71.9331C71.7037 382.326 71.4743 382.303 71.2509 382.25C71.4765 382.213 71.7046 382.194 71.9331 382.192L73.9003 382.135L81.1209 382.032L105 381.917H121.067C121.98 381.953 122.894 381.899 123.796 381.757C125.393 381.479 126.901 380.822 128.197 379.842C130.12 378.408 131.51 376.365 132.143 374.039C132.62 372.365 132.563 371.39 132.643 371.402Z" fill="#263238"/>
<path d="M151.019 389.818C148.046 390.12 145.056 390.22 142.07 390.116C139.08 390.22 136.086 390.121 133.109 389.818C136.086 389.523 139.08 389.423 142.07 389.52C145.056 389.423 148.045 389.523 151.019 389.818Z" fill="#263238"/>
<path d="M195.457 382.938C195.315 382.57 195.224 382.184 195.184 381.791C195.036 381.046 194.843 379.968 194.615 378.569C194.149 375.759 193.478 371.688 192.75 366.689C192.341 364.189 192.011 361.402 191.465 358.501C191.318 357.778 191.181 357.044 191.033 356.288C190.885 355.531 190.601 354.82 190.385 354.063C190.271 353.696 190.169 353.306 190.055 352.916C189.942 352.526 189.771 352.171 189.623 351.769C189.316 351.013 189.043 350.244 188.714 349.476C187.27 346.336 185.444 343.389 183.278 340.703C180.913 337.851 178.161 335.349 175.102 333.273C172.058 331.171 168.714 329.547 165.187 328.456C161.913 327.408 158.511 326.822 155.078 326.713C148.46 326.564 142.433 326.599 137.408 326.53C132.382 326.461 128.311 326.404 125.491 326.335C124.081 326.335 122.989 326.266 122.239 326.22C121.856 326.232 121.474 326.193 121.101 326.105C121.473 326.009 121.855 325.967 122.239 325.979L125.491 325.865C128.299 325.796 132.382 325.738 137.408 325.681C142.433 325.624 148.426 325.521 155.112 325.612C158.652 325.689 162.163 326.272 165.539 327.344C169.185 328.444 172.638 330.112 175.773 332.286C178.932 334.418 181.767 337.003 184.188 339.958C186.404 342.735 188.265 345.783 189.726 349.029C190.055 349.809 190.328 350.611 190.635 351.38C190.772 351.769 190.92 352.148 191.067 352.526C191.215 352.905 191.283 353.306 191.397 353.673C191.613 354.453 191.818 355.21 192.023 355.967C192.227 356.723 192.307 357.492 192.443 358.26C192.955 361.23 193.228 363.994 193.58 366.494C194.229 371.528 194.717 375.61 195.07 378.431C195.229 379.842 195.354 380.942 195.422 381.688C195.496 382.1 195.508 382.522 195.457 382.938Z" fill="#455A64"/>
<path d="M11.1549 273.034C11.1549 273.034 9.31281 278.229 12.8378 281.99H20.1721C20.1721 281.99 19.524 273.596 11.1549 273.034Z" fill="#EE4248"/>
<path opacity="0.4" d="M11.1549 273.034C11.1549 273.034 9.31281 278.229 12.8378 281.99H20.1721C20.1721 281.99 19.524 273.596 11.1549 273.034Z" fill="black"/>
<path d="M23.6517 262.335C23.3447 261.968 17.0679 271.876 20.5929 281.99H27.5065C27.5065 281.99 30.2128 270.225 23.6517 262.335Z" fill="#EE4248"/>
<path d="M35.8983 273.034C33.6382 273.187 31.5187 274.195 29.963 275.855C28.4073 277.515 27.53 279.706 27.5064 281.99H34.4087C34.4087 281.99 37.4334 277.702 35.8983 273.034Z" fill="#EE4248"/>
<path d="M12.2692 281.601C9.88483 283.327 8.03549 285.7 6.93638 288.445C5.83727 291.19 5.53358 294.193 6.06065 297.104C7.83453 307.425 18.637 311.874 18.637 311.874H30.6107C30.6107 311.874 42.8004 306.45 42.5048 295.293C42.2091 284.135 34.9544 281.761 34.9544 281.761L12.2692 281.601Z" fill="#455A64"/>
<path d="M42.4593 294.043C42.1882 293.582 41.8553 293.161 41.4701 292.793C40.9133 292.344 40.2737 292.012 39.5885 291.815C38.9034 291.619 38.1863 291.561 37.4788 291.646C35.3612 292.051 33.3602 292.928 31.6228 294.215C30.5191 294.926 29.3501 295.529 28.1318 296.015C26.7877 296.531 25.3319 296.677 23.9132 296.439C20.9908 295.935 18.6598 294.352 16.4765 293.297C14.6189 292.204 12.4836 291.686 10.3362 291.806C8.90055 291.957 7.57136 292.639 6.6065 293.722C6.28408 294.148 6.0095 294.61 5.78778 295.098C5.79538 294.953 5.82215 294.811 5.86738 294.673C5.98522 294.261 6.1738 293.873 6.42456 293.527C7.37804 292.321 8.76157 291.538 10.2793 291.348C12.537 291.148 14.8008 291.657 16.7608 292.804C19.035 293.859 21.3092 295.384 24.0497 295.843C25.3711 296.072 26.7293 295.941 27.984 295.465C29.173 294.998 30.3152 294.418 31.3953 293.733C33.2087 292.435 35.2943 291.575 37.4902 291.222C38.2477 291.147 39.0122 291.233 39.7348 291.474C40.4574 291.715 41.1221 292.105 41.6861 292.621C41.9795 292.911 42.2184 293.253 42.3911 293.63C42.448 293.894 42.4821 294.031 42.4593 294.043Z" fill="#263238"/>
<path d="M42.63 296.737C42.3572 296.285 42.0286 295.869 41.6521 295.499C41.1037 295.048 40.4703 294.714 39.7901 294.516C39.1099 294.319 38.3971 294.264 37.6949 294.352C35.6006 294.759 33.623 295.632 31.9071 296.909C30.8321 297.626 29.6894 298.232 28.4958 298.721C27.1639 299.239 25.7186 299.385 24.3112 299.146C21.4116 298.641 19.1033 297.059 16.9428 296.004C15.1137 294.912 13.0042 294.393 10.8821 294.513C9.45569 294.67 8.13833 295.357 7.18648 296.439C6.86894 296.861 6.60177 297.319 6.3905 297.804C6.3905 297.804 6.3905 297.655 6.45873 297.38C6.58175 296.989 6.76602 296.622 7.00454 296.29C7.94272 295.087 9.30954 294.302 10.8138 294.1C13.0335 293.897 15.2613 294.389 17.193 295.51C19.399 296.565 21.7414 298.091 24.4022 298.549C25.7087 298.778 27.0522 298.648 28.2911 298.171C29.4625 297.705 30.586 297.125 31.6455 296.439C33.4376 295.141 35.5049 294.281 37.6836 293.928C38.4249 293.861 39.1719 293.951 39.8768 294.192C40.5818 294.432 41.229 294.819 41.7771 295.327C42.0654 295.615 42.3003 295.953 42.4708 296.325C42.5461 296.452 42.5999 296.592 42.63 296.737Z" fill="#263238"/>
<path d="M11.5529 296.669C11.5529 296.6 11.8713 296.393 12.292 296.737C12.4192 296.848 12.51 296.995 12.5527 297.159C12.5953 297.323 12.5877 297.496 12.5308 297.655C12.4608 297.851 12.3296 298.019 12.1569 298.134C11.9841 298.248 11.7791 298.303 11.5728 298.29C11.3664 298.277 11.1697 298.197 11.0124 298.062C10.855 297.927 10.7454 297.744 10.7001 297.54C10.6601 297.383 10.6633 297.218 10.7094 297.062C10.7555 296.907 10.8427 296.767 10.9616 296.657C11.371 296.313 11.7235 296.474 11.7007 296.543C11.678 296.611 11.4506 296.669 11.28 296.944C11.2432 297.013 11.2239 297.089 11.2239 297.168C11.2239 297.246 11.2432 297.322 11.28 297.391C11.3133 297.471 11.3662 297.542 11.4338 297.596C11.5014 297.65 11.5815 297.686 11.6666 297.701C11.7506 297.698 11.8324 297.673 11.9041 297.629C11.9758 297.585 12.035 297.522 12.076 297.448C12.114 297.384 12.1342 297.311 12.1342 297.236C12.1342 297.162 12.114 297.088 12.076 297.024C11.8258 296.76 11.5643 296.749 11.5529 296.669Z" fill="#263238"/>
<path d="M25.1186 292.311C25.1186 292.242 25.437 292.024 25.8691 292.38C25.9917 292.494 26.0786 292.641 26.119 292.804C26.1594 292.967 26.1516 293.139 26.0965 293.297C26.0247 293.492 25.8937 293.659 25.7222 293.775C25.5506 293.89 25.3473 293.948 25.1413 293.939C24.9358 293.92 24.7413 293.836 24.5846 293.701C24.4278 293.565 24.3165 293.384 24.2658 293.183C24.2245 293.024 24.2282 292.858 24.2765 292.702C24.3247 292.545 24.4156 292.406 24.5387 292.3C24.948 291.956 25.3005 292.116 25.2664 292.185C25.2323 292.254 25.0162 292.311 24.8457 292.586C24.8116 292.656 24.7939 292.732 24.7939 292.81C24.7939 292.887 24.8116 292.964 24.8457 293.033C24.879 293.114 24.9319 293.184 24.9995 293.238C25.0671 293.293 25.1472 293.329 25.2323 293.343C25.3165 293.341 25.3988 293.317 25.4707 293.273C25.5426 293.228 25.6016 293.166 25.6417 293.091C25.681 293.027 25.7018 292.954 25.7018 292.879C25.7018 292.804 25.681 292.73 25.6417 292.667C25.3915 292.403 25.13 292.391 25.1186 292.311Z" fill="#263238"/>
<path d="M38.2748 296.864C38.2748 296.795 38.5932 296.588 39.0253 296.932C39.148 297.046 39.2348 297.194 39.2753 297.357C39.3157 297.52 39.3078 297.691 39.2527 297.85C39.181 298.045 39.05 298.212 38.8784 298.327C38.7069 298.442 38.5036 298.5 38.2976 298.492C38.0935 298.473 37.9001 298.391 37.7435 298.258C37.5869 298.125 37.4747 297.946 37.422 297.747C37.3812 297.587 37.385 297.418 37.4332 297.261C37.4814 297.103 37.572 296.961 37.6949 296.852C38.1043 296.508 38.4568 296.669 38.4227 296.737C38.3885 296.806 38.1725 296.875 38.0019 297.139C37.9541 297.207 37.9245 297.286 37.9161 297.369C37.9077 297.452 37.9208 297.535 37.954 297.612C37.9872 297.688 38.0395 297.754 38.1057 297.804C38.1719 297.854 38.2497 297.885 38.3317 297.896C38.4159 297.894 38.4982 297.869 38.57 297.825C38.6419 297.781 38.7009 297.718 38.741 297.643C38.7803 297.58 38.8012 297.506 38.8012 297.431C38.8012 297.356 38.7803 297.283 38.741 297.219C38.5477 296.967 38.2976 296.944 38.2748 296.864Z" fill="#263238"/>
<path d="M384.409 271.073L388.309 311.874H408.026L412.745 271.073H384.409Z" fill="#455A64"/>
<path d="M384.409 265.798C383.195 267.327 382.541 269.23 382.555 271.188H414.599C414.755 270.205 414.667 269.199 414.344 268.258C414.02 267.318 413.471 266.473 412.745 265.798H384.409Z" fill="#263238"/>
<path d="M388.059 262.06L386.979 266.097L411.165 266.28L409.562 262.014L388.059 262.06Z" fill="#263238"/>
<path d="M384.045 281.291C384.045 281.669 386.319 301.863 386.319 301.863H410.414L412.689 281.325L384.045 281.291Z" fill="#EE4248"/>
</svg>
